<?xml version="1.0" encoding="UTF-8"?>
<svg version="1.1" xmlns="http://www.w3.org/2000/svg" width="612" height="321">
<path d="M0 0 C201.96 0 403.92 0 612 0 C612 105.93 612 211.86 612 321 C410.04 321 208.08 321 0 321 C0 215.07 0 109.14 0 0 Z " fill="#040404" transform="translate(0,0)"/>
<path d="M0 0 C16.00266465 -0.023338 32.00532379 -0.04098362 48.00800133 -0.05181217 C55.43795719 -0.05697321 62.86790248 -0.06401226 70.29785156 -0.07543945 C76.77215762 -0.08539215 83.24645603 -0.09185483 89.72076952 -0.09408849 C93.15033643 -0.0953946 96.57988146 -0.09847418 100.00944138 -0.10573006 C103.83360969 -0.11375552 107.6577564 -0.11399076 111.48193359 -0.11352539 C112.62488388 -0.11712067 113.76783417 -0.12071594 114.94541931 -0.12442017 C116.50195473 -0.12235817 116.50195473 -0.12235817 118.0899353 -0.12025452 C118.99513601 -0.12117631 119.90033672 -0.1220981 120.83296776 -0.12304783 C123 0 123 0 125 1 C125 1.66 125 2.32 125 3 C125.66 3 126.32 3 127 3 C127 3.66 127 4.32 127 5 C127.66 5 128.32 5 129 5 C129 5.66 129 6.32 129 7 C129.66 7 130.32 7 131 7 C131 7.66 131 8.32 131 9 C131.66 9 132.32 9 133 9 C134.28430862 10.47695491 135.56580708 11.95806138 136.78125 13.4921875 C138.06784671 15.13813095 138.06784671 15.13813095 140 17 C139.01 17.66 138.02 18.32 137 19 C136.4225 18.05125 135.845 17.1025 135.25 16.125 C133.35627549 12.98457551 133.35627549 12.98457551 131 12 C129 11 129 11 127 7.875 C126.01 6.451875 126.01 6.451875 125 5 C123.68 5 122.36 5 121 5 C121.91895738 9.25591598 121.91895738 9.25591598 124.875 12.125 C125.57625 12.41375 126.2775 12.7025 127 13 C129.25 15 129.25 15 131 17 C131 17.66 131 18.32 131 19 C131.66 19 132.32 19 133 19 C133 19.66 133 20.32 133 21 C132.01 20.67 131.02 20.34 130 20 C130 19.34 130 18.68 130 18 C129.01 18 128.02 18 127 18 C122 12.65116279 122 12.65116279 122 10 C121.34 10 120.68 10 120 10 C120 9.34 120 8.68 120 8 C96.57 8 73.14 8 49 8 C49 7.34 49 6.68 49 6 C48.01 6 47.02 6 46 6 C45.67 6.66 45.34 7.32 45 8 C44.505 6.02 44.505 6.02 44 4 C44.66 4 45.32 4 46 4 C46 3.34 46 2.68 46 2 C44.60261597 2.00785522 44.60261597 2.00785522 43.17700195 2.01586914 C39.65632484 2.03310918 36.13569384 2.0455451 32.61499023 2.05493164 C31.1032642 2.05990073 29.5915428 2.06667832 28.07983398 2.07543945 C18.66598269 2.12855445 9.38208233 1.90900131 0 1 C0 0.67 0 0.34 0 0 Z " fill="#1C1C1C" transform="translate(110,240)"/>
<path d="M0 0 C0.66 0 1.32 0 2 0 C2.01458252 0.83249268 2.02916504 1.66498535 2.04418945 2.52270508 C2.1052863 5.61489653 2.17944556 8.70642082 2.26245117 11.7980957 C2.31201319 13.7929063 2.34651133 15.78807257 2.38085938 17.78320312 C2.41630859 19.03681641 2.45175781 20.29042969 2.48828125 21.58203125 C2.51446533 22.73936768 2.54064941 23.8967041 2.56762695 25.08911133 C2.76626783 27.97959381 2.76626783 27.97959381 4.34448242 29.83862305 C6.11171766 31.19609843 6.11171766 31.19609843 9 32 C9 31.34 9 30.68 9 30 C8.34 29.67 7.68 29.34 7 29 C7.33 27.68 7.66 26.36 8 25 C9.216875 24.95875 10.43375 24.9175 11.6875 24.875 C14.99525859 24.40581438 16.10736711 23.92233018 18.9375 21.875 C22.67973578 16.80163338 21.91505928 9.06940033 22 3 C22.33 3 22.66 3 23 3 C23 8.61 23 14.22 23 20 C23.66 20 24.32 20 25 20 C24.31991325 25.24769641 22.22080824 27.79432568 18.45703125 31.375 C14.84033437 33.76696487 11.86250007 33.83717439 7.61328125 33.76953125 C3.94375425 32.68896799 2.42226427 30.93189908 0 28 C-0.56762695 24.86206055 -0.56762695 24.86206055 -0.48828125 21.38671875 C-0.47216797 20.13955078 -0.45605469 18.89238281 -0.43945312 17.60742188 C-0.39755859 16.31384766 -0.35566406 15.02027344 -0.3125 13.6875 C-0.28994141 12.37458984 -0.26738281 11.06167969 -0.24414062 9.70898438 C-0.18527725 6.4714987 -0.10308804 3.23633 0 0 Z " fill="#272727" transform="translate(544,84)"/>
<path d="M0 0 C11.55 0 23.1 0 35 0 C34.67 0.66 34.34 1.32 34 2 C25.42 2.33 16.84 2.66 8 3 C9.71443219 4.71443219 12.00445241 4.23052967 14.34765625 4.31640625 C15.42724609 4.35830078 16.50683594 4.40019531 17.61914062 4.44335938 C19.32360352 4.50233398 19.32360352 4.50233398 21.0625 4.5625 C22.20267578 4.60568359 23.34285156 4.64886719 24.51757812 4.69335938 C27.34492195 4.79982839 30.17235738 4.90184207 33 5 C33 5.33 33 5.66 33 6 C32.25314941 6.01458252 31.50629883 6.02916504 30.73681641 6.04418945 C27.36567748 6.11847946 23.99554995 6.21520199 20.625 6.3125 C19.449375 6.33505859 18.27375 6.35761719 17.0625 6.38085938 C15.94101562 6.41630859 14.81953125 6.45175781 13.6640625 6.48828125 C12.10872803 6.52755737 12.10872803 6.52755737 10.52197266 6.56762695 C9.68972168 6.71031006 8.8574707 6.85299316 8 7 C5.57829321 10.63256018 5.6955497 12.52578695 5.5859375 16.85546875 C5.56657135 17.51710526 5.5472052 18.17874176 5.5272522 18.86042786 C5.46757313 20.96932164 5.42111913 23.07827037 5.375 25.1875 C5.33680934 26.61916415 5.29775697 28.05080559 5.2578125 29.48242188 C5.16188227 32.98807312 5.07780803 36.49389445 5 40 C4.67 40 4.34 40 4 40 C3.67 29.77 3.34 19.54 3 9 C-1.60532389 7.54685336 -1.60532389 7.54685336 -4 9 C-4 7.02 -4 5.04 -4 3 C-2.68 2.67 -1.36 2.34 0 2 C0 1.34 0 0.68 0 0 Z " fill="#212121" transform="translate(343,0)"/>
<path d="M0 0 C0.66 0 1.32 0 2 0 C2.13934353 8.35392351 2.24579249 16.70735733 2.31087303 25.06215763 C2.34211722 28.94216677 2.3844595 32.82137786 2.45263672 36.70092773 C2.51808216 40.44870724 2.55375799 44.1957218 2.56926346 47.94402885 C2.58030526 49.37019321 2.6018684 50.79631814 2.63438034 52.22215462 C2.90940656 64.78946177 2.90940656 64.78946177 -0.89599609 69.27905273 C-1.9052291 70.2142552 -2.93806086 71.12510562 -4 72 C-4.7425 72.804375 -5.485 73.60875 -6.25 74.4375 C-14.47234718 82.0992326 -14.47234718 82.0992326 -19 85 C-19.99 84.67 -20.98 84.34 -22 84 C-21.113125 83.46375 -20.22625 82.9275 -19.3125 82.375 C-16.45069718 80.47604673 -14.47945979 78.29716543 -12.35546875 75.58203125 C-10.34964703 73.2409425 -8.02574311 71.34693382 -5.6484375 69.39453125 C-5.10445312 68.93433594 -4.56046875 68.47414063 -4 68 C-3.47991867 67.60632736 -2.95983734 67.21265472 -2.42399597 66.80705261 C-0.32852259 64.14789436 -0.60007673 62.04793406 -0.56762695 58.69262695 C-0.54783279 57.39150467 -0.52803864 56.09038239 -0.50764465 54.74983215 C-0.50087483 53.32931665 -0.49442797 51.90879958 -0.48828125 50.48828125 C-0.47143671 49.03523739 -0.45328676 47.58220812 -0.43388367 46.12919617 C-0.38635258 42.30700236 -0.35656365 38.4848677 -0.33044434 34.66247559 C-0.30065427 30.76119299 -0.25411868 26.86011429 -0.20898438 22.95898438 C-0.12291604 15.30609068 -0.05558681 7.65318222 0 0 Z " fill="#1C1C1C" transform="translate(49,0)"/>
<path d="M0 0 C3.66666667 0 7.33333333 0 11 0 C10.67 0.66 10.34 1.32 10 2 C10.08924852 4.7235195 10.23353332 7.41013311 10.4375 10.125 C10.48970703 10.87910156 10.54191406 11.63320312 10.59570312 12.41015625 C10.72545004 14.2737937 10.86207488 16.13694996 11 18 C9.68 18 8.36 18 7 18 C6.34 18.66 5.68 19.32 5 20 C4.34 19.34 3.68 18.68 3 18 C2.34 18.66 1.68 19.32 1 20 C-0.1482685 17.703463 -0.11561175 16.41686833 -0.09765625 13.8671875 C-0.09443359 13.06152344 -0.09121094 12.25585938 -0.08789062 11.42578125 C-0.07951172 10.58402344 -0.07113281 9.74226562 -0.0625 8.875 C-0.05798828 8.02550781 -0.05347656 7.17601562 -0.04882812 6.30078125 C-0.03702874 4.20049091 -0.01909306 2.1002367 0 0 Z " fill="#1C1C1C" transform="translate(47,132)"/>
<path d="M0 0 C0.99 0.33 1.98 0.66 3 1 C3.99 0.67 4.98 0.34 6 0 C8.19275019 -0.08961953 10.38818658 -0.11758191 12.58276367 -0.11352539 C13.24644455 -0.11367142 13.91012543 -0.11381744 14.59391785 -0.1139679 C16.78530152 -0.11327182 18.97659995 -0.1054937 21.16796875 -0.09765625 C22.68825738 -0.09579099 24.20854661 -0.09436759 25.72883606 -0.09336853 C29.72864443 -0.08955188 33.72841644 -0.07972885 37.72821045 -0.06866455 C41.81033842 -0.05843213 45.89247227 -0.05386698 49.97460938 -0.04882812 C57.98308959 -0.03810583 65.99154027 -0.02103961 74 0 C74 0.66 74 1.32 74 2 C39.35 2.495 39.35 2.495 4 3 C3.34 4.32 2.68 5.64 2 7 C1.34 7 0.68 7 0 7 C0 7.66 0 8.32 0 9 C-0.99 9.33 -1.98 9.66 -3 10 C-3.33 9.34 -3.66 8.68 -4 8 C-3.01 8 -2.02 8 -1 8 C-1.33 7.01 -1.66 6.02 -2 5 C-1.34 4.67 -0.68 4.34 0 4 C-0.66 3.67 -1.32 3.34 -2 3 C-1 1 -1 1 0 0 Z " fill="#181818" transform="translate(409,97)"/>
<path d="M0 0 C0.85904434 -0.00073013 1.71808868 -0.00146027 2.60316467 -0.00221252 C5.43360233 0.00126211 8.26238029 0.04011662 11.0925293 0.0793457 C13.05835572 0.08867429 15.02419379 0.09579018 16.99003601 0.1007843 C22.15736129 0.11985048 27.32398086 0.16894832 32.49102783 0.2243042 C37.766301 0.27550469 43.04168851 0.29830008 48.31713867 0.32348633 C58.6631514 0.37706716 69.00864098 0.46237564 79.35424805 0.56762695 C79.35424805 0.89762695 79.35424805 1.22762695 79.35424805 1.56762695 C50.97424805 1.56762695 22.59424805 1.56762695 -6.64575195 1.56762695 C-6.64575195 2.22762695 -6.64575195 2.88762695 -6.64575195 3.56762695 C-8.0012207 4.8996582 -8.0012207 4.8996582 -9.83325195 6.38012695 C-13.75708267 9.5687737 -17.23315173 13.12110214 -20.76025391 16.73291016 C-23.23733518 19.26668564 -25.72262064 21.79224069 -28.20825195 24.31762695 C-29.05838867 25.19290039 -29.90852539 26.06817383 -30.78442383 26.9699707 C-31.60620117 27.80141602 -32.42797852 28.63286133 -33.2746582 29.48950195 C-34.0178833 30.2484375 -34.7611084 31.00737305 -35.52685547 31.78930664 C-37.65395716 33.57451332 -38.93215831 34.18243707 -41.64575195 34.56762695 C-41.64575195 33.90762695 -41.64575195 33.24762695 -41.64575195 32.56762695 C-40.65575195 32.23762695 -39.66575195 31.90762695 -38.64575195 31.56762695 C-35.98507466 29.11161715 -33.681946 26.61416215 -31.45825195 23.75512695 C-30.86012695 23.03325195 -30.26200195 22.31137695 -29.64575195 21.56762695 C-28.98575195 21.56762695 -28.32575195 21.56762695 -27.64575195 21.56762695 C-27.64575195 20.90762695 -27.64575195 20.24762695 -27.64575195 19.56762695 C-26.98575195 19.56762695 -26.32575195 19.56762695 -25.64575195 19.56762695 C-25.64575195 18.90762695 -25.64575195 18.24762695 -25.64575195 17.56762695 C-24.22703093 16.38535943 -22.80432929 15.20749805 -21.3605957 14.0559082 C-19.04772829 12.04861325 -17.16470386 9.78222292 -15.2355957 7.41137695 C-14.71094727 6.80293945 -14.18629883 6.19450195 -13.64575195 5.56762695 C-12.96628006 4.71630692 -12.28680817 3.86498688 -11.58674622 2.98786926 C-7.76502902 -0.15714933 -4.73193319 -0.10568298 0 0 Z " fill="#262626" transform="translate(286.645751953125,51.432373046875)"/>
<path d="M0 0 C0.99 0.33 1.98 0.66 3 1 C0.50127818 4.8373228 -2.0843836 8.45960866 -5 12 C-4.34 12 -3.68 12 -3 12 C-2.67 11.34 -2.34 10.68 -2 10 C0.0625 9.375 0.0625 9.375 2 9 C2 8.34 2 7.68 2 7 C5.3 7 8.6 7 12 7 C12 7.66 12 8.32 12 9 C11.39671875 9.02578125 10.7934375 9.0515625 10.171875 9.078125 C4.93018499 9.37388587 4.93018499 9.37388587 0.5625 12.0625 C0.046875 12.701875 -0.46875 13.34125 -1 14 C-1.66 14 -2.32 14 -3 14 C-3.33 14.99 -3.66 15.98 -4 17 C-4.66 17 -5.32 17 -6 17 C-6 27.89 -6 38.78 -6 50 C-6.33 50 -6.66 50 -7 50 C-7.01981934 49.0713916 -7.03963867 48.1427832 -7.06005859 47.18603516 C-7.13808613 43.7454948 -7.22477462 40.30540109 -7.31738281 36.86523438 C-7.35569998 35.37541111 -7.39054808 33.88549446 -7.421875 32.39550781 C-7.46746729 30.25551952 -7.52546874 28.11617564 -7.5859375 25.9765625 C-7.6173584 24.68830566 -7.6487793 23.40004883 -7.68115234 22.07275391 C-7.68458268 18.89518495 -7.68458268 18.89518495 -10 17 C-12.52128356 19.52128356 -12.29353069 20.51239013 -12.4140625 24.0078125 C-12.45273438 24.99394531 -12.49140625 25.98007812 -12.53125 26.99609375 C-12.5621875 28.02863281 -12.593125 29.06117188 -12.625 30.125 C-12.66367188 31.16527344 -12.70234375 32.20554687 -12.7421875 33.27734375 C-12.83664766 35.85138311 -12.92221214 38.42541155 -13 41 C-13.33 41 -13.66 41 -14 41 C-14 32.75 -14 24.5 -14 16 C-13.34 16 -12.68 16 -12 16 C-12 15.34 -12 14.68 -12 14 C-10.52295788 12.74772516 -9.04172601 11.49833478 -7.5078125 10.31640625 C-5.73237056 8.88235909 -5.73237056 8.88235909 -4 6 C-3.34 6 -2.68 6 -2 6 C-1.34 4.02 -0.68 2.04 0 0 Z " fill="#222222" transform="translate(17,271)"/>
<path d="M0 0 C1.30112228 0.00022659 2.60224457 0.00045319 3.9427948 0.00068665 C5.36331526 0.01600665 6.78383221 0.03165464 8.2043457 0.04760742 C9.65736961 0.05320342 11.11039919 0.0574735 12.56343079 0.06047058 C16.38583025 0.07191922 20.20788715 0.10138618 24.03015137 0.13458252 C27.93126796 0.16528322 31.83243997 0.17897589 35.73364258 0.1940918 C43.38679345 0.22625619 51.03966219 0.27745235 58.69262695 0.34057617 C58.69262695 1.33057617 58.69262695 2.32057617 58.69262695 3.34057617 C37.24262695 3.01057617 15.79262695 2.68057617 -6.30737305 2.34057617 C-6.30737305 3.00057617 -6.30737305 3.66057617 -6.30737305 4.34057617 C-7.93998019 5.71540324 -9.60962367 7.04705284 -11.30737305 8.34057617 C-11.96737305 9.00057617 -12.62737305 9.66057617 -13.30737305 10.34057617 C-14.29737305 10.67057617 -15.28737305 11.00057617 -16.30737305 11.34057617 C-15.17273062 7.93664888 -13.64795544 6.79349503 -10.87768555 4.62182617 C-9.25950108 3.40038163 -9.25950108 3.40038163 -8.10343933 1.78178406 C-5.44714234 -0.34969416 -3.37092491 -0.01956049 0 0 Z " fill="#191919" transform="translate(313.307373046875,274.659423828125)"/>
<path d="M0 0 C0.33 0 0.66 0 1 0 C1.12377604 5.74739758 1.21442248 11.49401627 1.2746582 17.24243164 C1.29977281 19.19699623 1.33387131 21.15146717 1.37719727 23.10571289 C1.43798434 25.91836668 1.46623983 28.72977702 1.48828125 31.54296875 C1.51408768 32.41398727 1.5398941 33.2850058 1.56648254 34.18241882 C1.56843809 38.43093289 1.54096413 40.33756456 -1.21801758 43.71606445 C-2.59509888 44.84661255 -2.59509888 44.84661255 -4 46 C-8.01617126 49.97675513 -9.56623484 52.26056016 -9.62210083 58.14073181 C-9.60412445 58.91397293 -9.58614807 59.68721405 -9.56762695 60.48388672 C-9.56835709 61.31381638 -9.56908722 62.14374603 -9.56983948 62.99882507 C-9.56637183 65.72645736 -9.52755135 68.45235569 -9.48828125 71.1796875 C-9.47895016 73.0768236 -9.47183544 74.97397179 -9.46684265 76.87112427 C-9.44779617 81.85267687 -9.39871559 86.83349494 -9.34332275 91.8147583 C-9.29207956 96.90244613 -9.26931778 101.99025322 -9.24414062 107.078125 C-9.19059461 117.0524052 -9.10531024 127.0261414 -9 137 C-9.99 137.33 -10.98 137.66 -12 138 C-12.10124784 126.69869688 -12.14819934 115.39857118 -12.12697029 104.09679604 C-12.11879291 98.84800552 -12.128899 93.60061073 -12.18164062 88.35205078 C-12.23191196 83.28097338 -12.23304341 78.2119904 -12.20095444 73.14078903 C-12.19722029 71.21199385 -12.21081282 69.28308033 -12.24249649 67.35454178 C-12.47689164 52.04325936 -12.47689164 52.04325936 -8.73580933 46.86752319 C-6.96076358 45.23005057 -5.13778249 43.64253644 -3.26419067 42.11880493 C-0.71840003 39.73648182 -0.19094329 38.60281378 0.22705078 35.19287109 C0.26652608 33.55350097 0.2545053 31.91221415 0.1953125 30.2734375 C0.20335907 29.39974518 0.21140564 28.52605286 0.21969604 27.62588501 C0.2345319 24.87323221 0.18105532 22.1270261 0.125 19.375 C0.12305529 17.49348879 0.12561998 15.61196722 0.1328125 13.73046875 C0.14058811 9.15187259 0.08716461 4.5777328 0 0 Z " fill="#383838" transform="translate(64,116)"/>
<path d="M0 0 C0.66 0 1.32 0 2 0 C3.26582219 3.86723631 3.1118765 7.73151262 3.0625 11.75 C3.05798828 12.44738281 3.05347656 13.14476562 3.04882812 13.86328125 C3.0371002 15.57555803 3.01916653 17.28779033 3 19 C2.34 19.33 1.68 19.66 1 20 C1 15.38 1 10.76 1 6 C0.01 6 -0.98 6 -2 6 C-2 10.29 -2 14.58 -2 19 C-2.33 19 -2.66 19 -3 19 C-3.04898438 18.00097656 -3.09796875 17.00195312 -3.1484375 15.97265625 C-3.22320312 14.68230469 -3.29796875 13.39195313 -3.375 12.0625 C-3.44460937 10.77472656 -3.51421875 9.48695312 -3.5859375 8.16015625 C-3.72257812 7.11730469 -3.85921875 6.07445312 -4 5 C-4.66 4.67 -5.32 4.34 -6 4 C-6 9.28 -6 14.56 -6 20 C-6.66 20 -7.32 20 -8 20 C-8.66 19.01 -9.32 18.02 -10 17 C-10.66 17.99 -11.32 18.98 -12 20 C-12 14.72 -12 9.44 -12 4 C-11.01 5.485 -11.01 5.485 -10 7 C-9.34 7 -8.68 7 -8 7 C-8 5.35 -8 3.7 -8 2 C-6.2984375 1.7834375 -6.2984375 1.7834375 -4.5625 1.5625 C-1.19222799 1.38828522 -1.19222799 1.38828522 0 0 Z " fill="#272727" transform="translate(123,41)"/>
<path d="M0 0 C0.66 0.66 1.32 1.32 2 2 C5.07643126 2.33320576 5.07643126 2.33320576 8.74462891 2.31884766 C9.43742447 2.32889328 10.13022003 2.3389389 10.8440094 2.34928894 C13.13818518 2.38022553 15.43224373 2.39718476 17.7265625 2.4140625 C19.31555192 2.43276577 20.90453133 2.45233854 22.49349976 2.4727478 C26.67901718 2.52416409 30.86456683 2.56373877 35.05023193 2.60089111 C39.32002803 2.64087143 43.58968895 2.69199093 47.859375 2.7421875 C56.23949113 2.83905915 64.61967393 2.92342772 73 3 C73 3.66 73 4.32 73 5 C49.24 5 25.48 5 1 5 C0.34 3.68 -0.32 2.36 -1 1 C-0.67 0.67 -0.34 0.34 0 0 Z " fill="#171717" transform="translate(399,64)"/>
<path d="M0 0 C0 3 0 3 -1.01502991 4.58486938 C-6.01808976 9.58398372 -10.68803274 9.68220734 -17.55088806 9.67977905 C-18.92847123 9.64914839 -20.30603974 9.61785257 -21.68359375 9.5859375 C-23.10846665 9.57473174 -24.53336283 9.56619807 -25.95826721 9.56021118 C-29.68904667 9.53742004 -33.41840034 9.47858588 -37.14862061 9.4119873 C-40.96281654 9.35035154 -44.77724533 9.32315114 -48.59179688 9.29296875 C-56.06184441 9.22882871 -63.53072162 9.1265728 -71 9 C-68.32200355 6.32200355 -66.9955385 6.74379628 -63.25268555 6.72875977 C-62.0477092 6.71857315 -60.84273285 6.70838654 -59.60124207 6.69789124 C-57.63880302 6.69468117 -57.63880302 6.69468117 -55.63671875 6.69140625 C-54.2839092 6.68030976 -52.93110971 6.66791694 -51.57832336 6.65428162 C-45.82875742 6.59884169 -40.07911767 6.56823009 -34.3293457 6.54370117 C-30.81259224 6.5277935 -27.29618522 6.49753691 -23.77961159 6.45893669 C-21.79167298 6.44166648 -19.80361115 6.4412321 -17.81559753 6.4410553 C-16.6011647 6.42771652 -15.38673187 6.41437775 -14.13549805 6.40063477 C-12.53571358 6.39302879 -12.53571358 6.39302879 -10.90361023 6.38526917 C-6.23484332 5.76578797 -3.10892681 3.43618226 0 0 Z " fill="#181818" transform="translate(330,31)"/>
<path d="M0 0 C2.05078125 0.03255208 4.1015625 0.06510417 6.15234375 0.09765625 C6.15234375 1.09765625 6.15234375 2.09765625 6.15234375 3.09765625 C6.35859375 3.69578125 6.56484375 4.29390625 6.77734375 4.91015625 C7.25132954 7.67507337 6.66861661 8.78334505 5.15234375 11.09765625 C4.16234375 11.59265625 4.16234375 11.59265625 3.15234375 12.09765625 C4.14234375 12.75765625 5.13234375 13.41765625 6.15234375 14.09765625 C5.16234375 15.41765625 4.17234375 16.73765625 3.15234375 18.09765625 C4.14234375 17.76765625 5.13234375 17.43765625 6.15234375 17.09765625 C6.15234375 17.75765625 6.15234375 18.41765625 6.15234375 19.09765625 C3.51234375 19.09765625 0.87234375 19.09765625 -1.84765625 19.09765625 C-1.84765625 18.43765625 -1.84765625 17.77765625 -1.84765625 17.09765625 C-0.85765625 16.76765625 0.13234375 16.43765625 1.15234375 16.09765625 C0.16234375 15.76765625 -0.82765625 15.43765625 -1.84765625 15.09765625 C-1.97140625 13.42703125 -1.97140625 13.42703125 -2.09765625 11.72265625 C-2.42639412 8.04011681 -2.42639412 8.04011681 -4.91015625 6.66015625 C-5.54953125 6.47453125 -6.18890625 6.28890625 -6.84765625 6.09765625 C-6.18765625 5.76765625 -5.52765625 5.43765625 -4.84765625 5.09765625 C-4.14828093 3.78118506 -3.48036492 2.44743474 -2.84765625 1.09765625 C-1.84765625 0.09765625 -1.84765625 0.09765625 0 0 Z " fill="#0D0D0D" transform="translate(112.84765625,121.90234375)"/>
<path d="M0 0 C1.15757812 0.00322266 2.31515625 0.00644531 3.5078125 0.00976562 C4.65765625 -0.00634766 5.8075 -0.02246094 6.9921875 -0.0390625 C8.65121094 -0.0400293 8.65121094 -0.0400293 10.34375 -0.04101562 C11.35743652 -0.04399658 12.37112305 -0.04697754 13.41552734 -0.05004883 C16.53370984 0.3771954 17.93458691 1.08833116 20.1328125 3.32226562 C20.1328125 4.31226563 20.1328125 5.30226563 20.1328125 6.32226562 C20.7309375 6.59039062 21.3290625 6.85851562 21.9453125 7.13476562 C24.34170409 8.43566392 25.54429067 9.09597712 27.1328125 11.32226562 C27.39440572 14.12215691 27.48185588 16.69454492 27.42578125 19.49023438 C27.42153641 20.28504715 27.41729156 21.07985992 27.41291809 21.89875793 C27.3961318 24.43610583 27.35848074 26.97265801 27.3203125 29.50976562 C27.30526555 31.23045727 27.29157716 32.95116138 27.27929688 34.671875 C27.24622857 38.88897824 27.19444745 43.10548705 27.1328125 47.32226562 C26.4728125 47.32226562 25.8128125 47.32226562 25.1328125 47.32226562 C25.14235962 45.77901611 25.14235962 45.77901611 25.15209961 44.20458984 C25.16658603 40.36855281 25.13510325 36.53400434 25.09008789 32.69824219 C25.07698964 31.04171832 25.07617602 29.38504811 25.08813477 27.72851562 C25.49850603 18.47813276 25.49850603 18.47813276 22.65283203 10.00683594 C20.88937551 8.51037003 19.14821567 7.44187157 17.1328125 6.32226562 C16.54628906 5.54367187 15.95976562 4.76507813 15.35546875 3.96289062 C11.54425488 1.14969234 7.15515696 1.91128527 2.5703125 2.07226562 C1.61189453 2.0903125 0.65347656 2.10835938 -0.33398438 2.12695312 C-2.11030908 2.16180743 -3.88650505 2.20487724 -5.66235352 2.25878906 C-7.39670859 2.30872067 -9.13211382 2.32226562 -10.8671875 2.32226562 C-7.72556695 -0.81935493 -4.28809472 0.02755201 0 0 Z " fill="#1D1D1D" transform="translate(479.8671875,273.677734375)"/>
<path d="M0 0 C0.33 0.99 0.66 1.98 1 3 C-3.39632459 8.03968916 -5.28524782 9.12956916 -12 10 C-14.35647001 12.34079757 -14.35647001 12.34079757 -16 15 C-18 17 -18 17 -21.07470703 18.8425293 C-23.29599049 20.69928124 -23.9367143 21.71285179 -24.56732178 24.5741272 C-24.79220135 27.90129693 -24.83044744 31.18478821 -24.8046875 34.51953125 C-24.81839386 35.73323898 -24.83210022 36.94694672 -24.84622192 38.19743347 C-24.88357718 42.06949747 -24.87980275 45.9402811 -24.875 49.8125 C-24.89312264 52.43947322 -24.91392394 55.06642943 -24.9375 57.69335938 C-24.9894033 64.12903193 -25.00755276 70.56413741 -25 77 C-25.33 77 -25.66 77 -26 77 C-26.09273004 69.50694986 -26.16378 62.0139593 -26.20724869 54.52046585 C-26.22811308 51.0407813 -26.25640821 47.56148967 -26.30175781 44.08203125 C-26.35358227 40.08069107 -26.37295453 36.07976281 -26.390625 32.078125 C-26.41127014 30.83009094 -26.43191528 29.58205688 -26.45318604 28.29620361 C-26.45348816 27.13530212 -26.45379028 25.97440063 -26.45410156 24.77832031 C-26.46298401 23.75683899 -26.47186646 22.73535767 -26.48101807 21.68292236 C-25.87311901 18.29230966 -24.67970068 17.09463023 -22 15 C-21.34 15 -20.68 15 -20 15 C-20 14.34 -20 13.68 -20 13 C-19.34 13 -18.68 13 -18 13 C-17.71125 12.360625 -17.4225 11.72125 -17.125 11.0625 C-16 9 -16 9 -14 8 C-11.3276379 7.86584528 -8.67749512 7.95681459 -6 8 C-6 7.34 -6 6.68 -6 6 C-5.34 6 -4.68 6 -4 6 C-3.67 5.01 -3.34 4.02 -3 3 C-1.4375 1.3125 -1.4375 1.3125 0 0 Z " fill="#242424" transform="translate(113,0)"/>
<path d="M0 0 C7.92 0 15.84 0 24 0 C24.33 0.99 24.66 1.98 25 3 C25.99 3 26.98 3 28 3 C31.11506183 5.88452476 31.94930733 7.5194136 32.3984375 11.77734375 C32.40141688 13.16408131 32.39324922 14.55087933 32.375 15.9375 C32.30612437 21.22264929 32.30612437 21.22264929 34.421875 25.88671875 C34.98390625 26.29535156 35.5459375 26.70398438 36.125 27.125 C38.70965018 29.06820415 38.97328391 29.82837584 39.48828125 33.13671875 C39.39370406 39.9826521 38.55160914 44.26895405 33.625 49.1875 C32.10403846 50.48304216 30.5641346 51.75692461 29 53 C27.98570865 53.98550142 26.97925638 54.97967802 26 56 C25.34 55.67 24.68 55.34 24 55 C24.680625 54.319375 25.36125 53.63875 26.0625 52.9375 C26.51109375 52.47085938 26.9596875 52.00421875 27.421875 51.5234375 C29 50 29 50 30.890625 48.6015625 C34.44829494 45.75253413 35.86516358 44.07869137 36.4453125 39.4375 C36.43824547 35.93225496 36.30505175 32.49114778 36 29 C34.68 28.34 33.36 27.68 32 27 C32 26.34 32 25.68 32 25 C31.34 24.67 30.68 24.34 30 24 C30.01160156 23.18015625 30.02320313 22.3603125 30.03515625 21.515625 C30.04417969 20.43796875 30.05320312 19.3603125 30.0625 18.25 C30.07410156 17.18265625 30.08570313 16.1153125 30.09765625 15.015625 C30.01454043 12.44900837 29.89084647 10.39800183 29 8 C28.34 7.67 27.68 7.34 27 7 C27 6.34 27 5.68 27 5 C26.38125 4.690625 25.7625 4.38125 25.125 4.0625 C23.75 3.375 22.375 2.6875 21 2 C19.40737934 1.84824451 17.80935144 1.75099675 16.2109375 1.68359375 C15.26992188 1.64169922 14.32890625 1.59980469 13.359375 1.55664062 C12.37453125 1.51732422 11.3896875 1.47800781 10.375 1.4375 C9.38242187 1.39431641 8.38984375 1.35113281 7.3671875 1.30664062 C4.91160162 1.20038931 2.45591297 1.09835036 0 1 C0 0.67 0 0.34 0 0 Z " fill="#1C1C1C" transform="translate(443,112)"/>
<path d="M0 0 C0 0.66 0 1.32 0 2 C-0.99 2 -1.98 2 -3 2 C-3.99 3.485 -3.99 3.485 -5 5 C-5.99 5 -6.98 5 -8 5 C-9.18451089 6.92839876 -9.18451089 6.92839876 -8.8125 9 C-8.15640538 11.18591701 -8.15640538 11.18591701 -5.9375 12.25 C-5.298125 12.4975 -4.65875 12.745 -4 13 C-4 13.99 -4 14.98 -4 16 C-6 16 -6 16 -8.625 13.625 C-11 11 -11 11 -11 9 C-11.66 9 -12.32 9 -13 9 C-12.67 7.35 -12.34 5.7 -12 4 C-13.32 4 -14.64 4 -16 4 C-16 4.66 -16 5.32 -16 6 C-16.66 6 -17.32 6 -18 6 C-18 4.68 -18 3.36 -18 2 C-18.66 1.67 -19.32 1.34 -20 1 C-16.67946345 -0.9476224 -13.81719957 -1.42553804 -10 -1.75 C-8.96875 -1.84796875 -7.9375 -1.9459375 -6.875 -2.046875 C-3.93662711 -1.99896675 -2.46097808 -1.5381113 0 0 Z " fill="#0C0C0C" transform="translate(520,82)"/>
<path d="M0 0 C0.66 0 1.32 0 2 0 C2 3.96 2 7.92 2 12 C3.32 12.33 4.64 12.66 6 13 C5.67 13.66 5.34 14.32 5 15 C4.01 15.33 3.02 15.66 2 16 C3.38384294 18.98058479 4.72769273 21.6101596 7 24 C9.95551526 24.69952489 9.95551526 24.69952489 13.1875 24.75 C14.81751953 24.83507812 14.81751953 24.83507812 16.48046875 24.921875 C17.72763672 24.96054688 17.72763672 24.96054688 19 25 C19 25.66 19 26.32 19 27 C14.83606964 27.64390676 11.14798753 27.82278156 7 27 C3.10193839 24.10739079 0.14776568 20.66821299 -3 17 C-6.19050854 15.40474573 -8.47497974 15.58874764 -12 16 C-13.82534145 17.41971002 -15.24746464 18.92302664 -16.73828125 20.6875 C-17.15464844 21.120625 -17.57101563 21.55375 -18 22 C-18.66 22 -19.32 22 -20 22 C-20 20 -20 20 -17.5625 17.4375 C-16.716875 16.633125 -15.87125 15.82875 -15 15 C-14.67 14.67 -14.34 14.34 -14 14 C-12.02206391 13.92717467 -10.04166299 13.9163199 -8.0625 13.9375 C-6.98097656 13.94652344 -5.89945313 13.95554688 -4.78515625 13.96484375 C-3.40650391 13.98224609 -3.40650391 13.98224609 -2 14 C-1.34 14 -0.68 14 0 14 C-0.66 13.34 -1.32 12.68 -2 12 C-1.67 11.67 -1.34 11.34 -1 11 C-0.76636119 9.15108054 -0.58696365 7.29511969 -0.4375 5.4375 C-0.35371094 4.42558594 -0.26992187 3.41367188 -0.18359375 2.37109375 C-0.09271484 1.19740234 -0.09271484 1.19740234 0 0 Z " fill="#191919" transform="translate(249,192)"/>
<path d="M0 0 C3.3 0 6.6 0 10 0 C10.33 0.66 10.66 1.32 11 2 C9.68 2.33 8.36 2.66 7 3 C6.67 7.95 6.34 12.9 6 18 C5.01 18 4.02 18 3 18 C2.67 18.66 2.34 19.32 2 20 C2 19.34 2 18.68 2 18 C1.34 18 0.68 18 0 18 C0 12.06 0 6.12 0 0 Z " fill="#0E0E0E" transform="translate(573,164)"/>
<path d="M0 0 C0.90070724 0.00022659 1.80141449 0.00045319 2.72941589 0.00068665 C4.18267021 0.02391243 4.18267021 0.02391243 5.6652832 0.04760742 C6.65986038 0.05185226 7.65443756 0.05609711 8.67915344 0.06047058 C11.8583982 0.07727465 15.03701102 0.11493041 18.21606445 0.15307617 C20.37035218 0.16812076 22.52464983 0.18180955 24.67895508 0.1940918 C29.96237412 0.22718373 35.24542414 0.27740025 40.52856445 0.34057617 C40.52856445 0.67057617 40.52856445 1.00057617 40.52856445 1.34057617 C39.24691406 1.34992187 37.96526367 1.35926758 36.64477539 1.36889648 C31.88840003 1.40877678 27.13267284 1.47453032 22.37670898 1.5480957 C20.31852547 1.57631666 18.26023335 1.59752558 16.2019043 1.61157227 C13.2425166 1.63298607 10.28443626 1.67962838 7.32543945 1.73120117 C5.9455484 1.73304413 5.9455484 1.73304413 4.53778076 1.73492432 C-0.6373783 1.77340135 -0.6373783 1.77340135 -4.95874023 4.37866211 C-5.45792969 5.02609375 -5.95711914 5.67352539 -6.47143555 6.34057617 C-7.13143555 6.34057617 -7.79143555 6.34057617 -8.47143555 6.34057617 C-8.47143555 7.00057617 -8.47143555 7.66057617 -8.47143555 8.34057617 C-12.77376113 13.10801803 -12.77376113 13.10801803 -16.47143555 14.34057617 C-17.68025651 16.34074083 -17.68025651 16.34074083 -18.47143555 18.34057617 C-19.13143555 18.34057617 -19.79143555 18.34057617 -20.47143555 18.34057617 C-21.13143555 19.66057617 -21.79143555 20.98057617 -22.47143555 22.34057617 C-23.46143555 22.34057617 -24.45143555 22.34057617 -25.47143555 22.34057617 C-24.85389296 21.02455094 -24.22714813 19.71284061 -23.59643555 18.40307617 C-23.07436523 17.30672852 -23.07436523 17.30672852 -22.54174805 16.18823242 C-21.47143555 14.34057617 -21.47143555 14.34057617 -19.47143555 13.34057617 C-19.14143555 14.00057617 -18.81143555 14.66057617 -18.47143555 15.34057617 C-15.80408282 12.85104696 -13.91397212 10.70649484 -12.47143555 7.34057617 C-11.48143555 7.34057617 -10.49143555 7.34057617 -9.47143555 7.34057617 C-9.20331055 6.74245117 -8.93518555 6.14432617 -8.65893555 5.52807617 C-6.42833448 1.4190742 -4.73611072 -0.03979925 0 0 Z " fill="#232323" transform="translate(287.471435546875,59.659423828125)"/>
<path d="M0 0 C0.33 0 0.66 0 1 0 C1.14584726 3.87460078 1.23425444 7.74849117 1.3125 11.625 C1.35439453 12.71941406 1.39628906 13.81382812 1.43945312 14.94140625 C1.57761611 24.06016342 1.57761611 24.06016342 -1.39453125 27.7734375 C-4 30 -4 30 -6 30 C-6 30.66 -6 31.32 -6 32 C-9.3 32 -12.6 32 -16 32 C-16.66 33.32 -17.32 34.64 -18 36 C-18.66 36 -19.32 36 -20 36 C-20 36.66 -20 37.32 -20 38 C-20.66 38 -21.32 38 -22 38 C-22 38.66 -22 39.32 -22 40 C-22.66 40 -23.32 40 -24 40 C-24.66 41.32 -25.32 42.64 -26 44 C-26.66 44 -27.32 44 -28 44 C-28 44.66 -28 45.32 -28 46 C-28.66 46 -29.32 46 -30 46 C-30 46.66 -30 47.32 -30 48 C-30.66 48 -31.32 48 -32 48 C-30.8178101 43.86233534 -29.03236469 41.96284208 -25.62109375 39.40234375 C-23.81043105 37.83601144 -22.6746507 36.14978667 -21.3125 34.1875 C-19.28138024 31.67174308 -18.42346177 31.06676991 -15.17578125 30.5546875 C-12.4170708 30.56175206 -9.74050611 30.69279024 -7 31 C-6.87625 30.38125 -6.7525 29.7625 -6.625 29.125 C-6 27 -6 27 -4 25 C-3.01 25 -2.02 25 -1 25 C-0.67 16.75 -0.34 8.5 0 0 Z " fill="#1C1C1C" transform="translate(248,154)"/>
<path d="M0 0 C0.33 0.99 0.66 1.98 1 3 C0.34 3.66 -0.32 4.32 -1 5 C-1.33034828 7.14052502 -1.33034828 7.14052502 -1.31884766 9.63330078 C-1.33871735 10.59414581 -1.35858704 11.55499084 -1.37905884 12.54495239 C-1.39061005 13.58457123 -1.40216125 14.62419006 -1.4140625 15.6953125 C-1.43342865 16.75789276 -1.4527948 17.82047302 -1.4727478 18.91525269 C-1.53266084 22.31841943 -1.57897598 25.72161978 -1.625 29.125 C-1.66316897 31.4284004 -1.70222005 33.73178636 -1.7421875 36.03515625 C-1.83837187 41.68997628 -1.92338481 47.34488283 -2 53 C-2.66 53 -3.32 53 -4 53 C-4.10137822 46.09501681 -4.1714562 39.19022535 -4.21972656 32.28466797 C-4.23984814 29.93531116 -4.26714851 27.58600446 -4.30175781 25.23681641 C-4.3502504 21.86087685 -4.37296357 18.48559914 -4.390625 15.109375 C-4.41127014 14.05820496 -4.43191528 13.00703491 -4.45318604 11.92401123 C-4.45544041 4.60615538 -4.45544041 4.60615538 -1.97558594 1.30566406 C-1.32364258 0.87479492 -0.67169922 0.44392578 0 0 Z " fill="#1B1B1B" transform="translate(116,163)"/>
<path d="M0 0 C19.32039774 -1.7331298 19.32039774 -1.7331298 24.62109375 2.15625 C31 8.59996372 31 8.59996372 31 12 C31.928125 12.4640625 31.928125 12.4640625 32.875 12.9375 C37 15 37 15 37.62364197 16.82183838 C38.23567458 20.36396008 38.00152765 23.90718276 37.87890625 27.484375 C37.84348976 28.70776581 37.84348976 28.70776581 37.80735779 29.95587158 C37.73094567 32.5541014 37.64682516 35.15201614 37.5625 37.75 C37.50925681 39.51430764 37.45651657 41.27863053 37.40429688 43.04296875 C37.27536101 47.36217769 37.1395126 51.68112028 37 56 C36.67 56 36.34 56 36 56 C36 43.13 36 30.26 36 17 C35.34 17 34.68 17 34 17 C34 16.34 34 15.68 34 15 C33.401875 14.731875 32.80375 14.46375 32.1875 14.1875 C30.00152146 13.00082594 28.58667406 11.90400887 27 10 C27 9.34 27 8.68 27 8 C26.401875 7.731875 25.80375 7.46375 25.1875 7.1875 C23.00152146 6.00082594 21.58667406 4.90400887 20 3 C20 2.34 20 1.68 20 1 C13.4 1 6.8 1 0 1 C0 0.67 0 0.34 0 0 Z " fill="#131313" transform="translate(500,73)"/>
<path d="M0 0 C6.27 0 12.54 0 19 0 C19 2 19 2 17.1875 4.625 C12.59373545 8.04780496 8.54305061 7.43684287 3 7 C2.67 6.01 2.34 5.02 2 4 C1.34 4 0.68 4 0 4 C0 2.68 0 1.36 0 0 Z " fill="#0C0C0C" transform="translate(303,0)"/>
<path d="M0 0 C0.33 0 0.66 0 1 0 C1.00257813 1.21816406 1.00515625 2.43632813 1.0078125 3.69140625 C0.7478395 13.7151559 0.7478395 13.7151559 4.8125 22.4375 C6.37824504 23.88602468 6.37824504 23.88602468 8 25 C9.175625 25.8971875 9.175625 25.8971875 10.375 26.8125 C10.91125 27.204375 11.4475 27.59625 12 28 C12 28.66 12 29.32 12 30 C12.66 30 13.32 30 14 30 C15.35386936 31.65002828 16.68678142 33.3174387 18 35 C18.66 35.33 19.32 35.66 20 36 C20 36.66 20 37.32 20 38 C20.66 38 21.32 38 22 38 C22 47.9 22 57.8 22 68 C21.67 68 21.34 68 21 68 C21.00636475 67.18321777 21.01272949 66.36643555 21.01928711 65.52490234 C21.02799642 61.80734729 20.98327915 58.0922669 20.9375 54.375 C20.94845703 53.08980469 20.95941406 51.80460937 20.97070312 50.48046875 C21.06278863 43.75112695 21.06278863 43.75112695 18.37939453 37.83300781 C16.50169614 36.20591821 16.50169614 36.20591821 14.49829102 35.00244141 C14.00385498 34.67163574 13.50941895 34.34083008 13 34 C13 33.34 13 32.68 13 32 C12.40316406 31.74089844 11.80632813 31.48179688 11.19140625 31.21484375 C8.83741563 29.90986856 7.61714344 28.64525787 5.9375 26.5625 C3.83787863 23.97060131 3.83787863 23.97060131 1.42675781 21.68212891 C-0.45538911 19.46310216 -0.34797906 18.21090392 -0.29296875 15.33203125 C-0.28330078 14.43935547 -0.27363281 13.54667969 -0.26367188 12.62695312 C-0.23853516 11.69818359 -0.21339844 10.76941406 -0.1875 9.8125 C-0.17396484 8.87212891 -0.16042969 7.93175781 -0.14648438 6.96289062 C-0.11113096 4.64134962 -0.06178674 2.32096347 0 0 Z " fill="#232323" transform="translate(528,40)"/>
<path d="M0 0 C0.66 0.33 1.32 0.66 2 1 C1.67 1.66 1.34 2.32 1 3 C1.66 3.33 2.32 3.66 3 4 C0.76019711 7.35970434 -0.34222968 7.68695425 -4 9 C-5.91219585 10.91219585 -5.24435298 14.33645504 -5.31640625 16.87890625 C-5.33718735 17.5655687 -5.35796844 18.25223114 -5.37937927 18.95970154 C-5.44494143 21.16052935 -5.50379015 23.36147975 -5.5625 25.5625 C-5.60567892 27.05144514 -5.649293 28.54037773 -5.69335938 30.02929688 C-5.8006293 33.68606553 -5.90187772 37.34297318 -6 41 C-6.66 41 -7.32 41 -8 41 C-8 41.66 -8 42.32 -8 43 C-8.66 43 -9.32 43 -10 43 C-9.67 42.01 -9.34 41.02 -9 40 C-8.90682089 37.69020548 -8.86826086 35.37806239 -8.859375 33.06640625 C-8.841052 31.68162411 -8.82148216 30.29685801 -8.80078125 28.91210938 C-8.77178907 26.73499333 -8.7499992 24.55891363 -8.74951172 22.3815918 C-8.74617455 20.275601 -8.71162806 18.17198412 -8.671875 16.06640625 C-8.6625293 14.80771729 -8.65318359 13.54902832 -8.64355469 12.25219727 C-7.8327774 8.15494224 -6.37534469 7.28768237 -3 5 C-2.28552357 2.89667109 -2.28552357 2.89667109 -2 1 C-1.34 0.67 -0.68 0.34 0 0 Z " fill="#191919" transform="translate(290,266)"/>
<path d="M0 0 C0.33 0 0.66 0 1 0 C1.02505615 0.71655762 1.0501123 1.43311523 1.07592773 2.17138672 C1.19169751 5.40611514 1.31450969 8.64053841 1.4375 11.875 C1.47681641 13.00292969 1.51613281 14.13085938 1.55664062 15.29296875 C1.59853516 16.36933594 1.64042969 17.44570313 1.68359375 18.5546875 C1.73858032 20.04718018 1.73858032 20.04718018 1.79467773 21.56982422 C1.84959532 24.00779501 1.84959532 24.00779501 3 26 C-0.625 29 -0.625 29 -4 29 C-4.268125 29.804375 -4.53625 30.60875 -4.8125 31.4375 C-5.204375 32.283125 -5.59625 33.12875 -6 34 C-9.24798743 35.08266248 -11.35896827 35.03436186 -14.76171875 34.87890625 C-15.87998047 34.83056641 -16.99824219 34.78222656 -18.15039062 34.73242188 C-19.31763672 34.67634766 -20.48488281 34.62027344 -21.6875 34.5625 C-22.86634766 34.51029297 -24.04519531 34.45808594 -25.25976562 34.40429688 C-28.17344094 34.27453806 -31.08678078 34.13956868 -34 34 C-34 34.66 -34 35.32 -34 36 C-33.34 36.33 -32.68 36.66 -32 37 C-32.78375 37.28875 -33.5675 37.5775 -34.375 37.875 C-37.09671632 38.84912254 -37.09671632 38.84912254 -39 41 C-38.65574229 38.45249292 -38.34507811 36.50040432 -36.87182617 34.36401367 C-34.09233403 32.33857705 -31.77136023 32.56269345 -28.36328125 32.48828125 C-27.06455078 32.45283203 -25.76582031 32.41738281 -24.42773438 32.38085938 C-23.05599483 32.3577595 -21.6842499 32.3349771 -20.3125 32.3125 C-18.92900393 32.27932458 -17.54553871 32.24483469 -16.16210938 32.20898438 C-12.77482117 32.12636759 -9.38779643 32.05725942 -6 32 C-6.495 30.515 -6.495 30.515 -7 29 C-3.25 26 -3.25 26 -1 26 C-0.67 17.42 -0.34 8.84 0 0 Z " fill="#2A2A2A" transform="translate(289,280)"/>
<path d="M0 0 C3.3 0 6.6 0 10 0 C10 0.33 10 0.66 10 1 C7.36 1.33 4.72 1.66 2 2 C1.67 3.32 1.34 4.64 1 6 C2.11375 5.95875 3.2275 5.9175 4.375 5.875 C8 6 8 6 10 8 C9.41992188 8.00257813 8.83984375 8.00515625 8.2421875 8.0078125 C4.23272871 8.20630056 0.75622217 8.57665234 -2.5 11.0625 C-6.48128917 15.48129347 -5.73907706 21.99702907 -5.796875 27.61328125 C-5.86390625 28.73089844 -5.9309375 29.84851563 -6 31 C-6.66 31.33 -7.32 31.66 -8 32 C-7.93981323 29.10200713 -7.85272994 26.20903763 -7.75 23.3125 C-7.72873047 22.08756836 -7.72873047 22.08756836 -7.70703125 20.83789062 C-7.49697625 15.64953215 -6.87109303 12.80141335 -3 9 C-3.556875 9.28875 -4.11375 9.5775 -4.6875 9.875 C-7.08494645 11.0413253 -9.51596939 12.0339881 -12 13 C-12 12.01 -12 11.02 -12 10 C-10.68 10 -9.36 10 -8 10 C-8 9.34 -8 8.68 -8 8 C-6.50390625 6.5625 -6.50390625 6.5625 -4.5625 5 C-1.84811762 2.85474956 -1.84811762 2.85474956 0 0 Z " fill="#272727" transform="translate(70,198)"/>
<path d="M0 0 C0.33 0 0.66 0 1 0 C1.0694394 11.2915395 1.12278043 22.5830284 1.15543652 33.87473774 C1.17110796 39.11765891 1.19237325 44.36043425 1.22631836 49.60327148 C1.25885901 54.66070684 1.27684187 59.71800173 1.28463173 64.77553368 C1.29018476 66.7072998 1.30102819 68.63905804 1.31719017 70.57076454 C1.33889413 73.27171204 1.34196989 75.97207536 1.34057617 78.6730957 C1.35675491 79.87718834 1.35675491 79.87718834 1.3732605 81.10560608 C1.34279011 86.54473785 1.34279011 86.54473785 -0.52128601 89.02043152 C-1.25324944 89.50531792 -1.25324944 89.50531792 -2 90 C-2.66 89.67 -3.32 89.34 -4 89 C-3.51391769 88.51029724 -3.02783539 88.02059448 -2.52702332 87.51605225 C-0.39739327 84.0070944 -0.56029723 80.72921945 -0.56762695 76.74316406 C-0.55233948 75.49870766 -0.55233948 75.49870766 -0.53674316 74.22911072 C-0.50658722 71.49121368 -0.49734331 68.75366637 -0.48828125 66.015625 C-0.47143648 64.11560908 -0.45328652 62.21560431 -0.43388367 60.31561279 C-0.38635558 55.31796759 -0.35656436 50.32036763 -0.33044434 45.3225708 C-0.30065302 40.22146673 -0.25411778 35.12051857 -0.20898438 30.01953125 C-0.12291928 20.01310234 -0.05558821 10.00664137 0 0 Z " fill="#2F2F2F" transform="translate(576,63)"/>
<path d="M0 0 C0.99 0.66 1.98 1.32 3 2 C5.61289494 2.36749389 5.61289494 2.36749389 8.54296875 2.4140625 C10.15268555 2.47207031 10.15268555 2.47207031 11.79492188 2.53125 C12.91447266 2.5621875 14.03402344 2.593125 15.1875 2.625 C16.31865234 2.66367188 17.44980469 2.70234375 18.61523438 2.7421875 C21.4099925 2.83652533 24.20474278 2.92211652 27 3 C27 3.33 27 3.66 27 4 C26.25314941 4.01458252 25.50629883 4.02916504 24.73681641 4.04418945 C21.36567748 4.11847946 17.99554995 4.21520199 14.625 4.3125 C13.449375 4.33505859 12.27375 4.35761719 11.0625 4.38085938 C9.94101562 4.41630859 8.81953125 4.45175781 7.6640625 4.48828125 C6.62717285 4.51446533 5.5902832 4.54064941 4.52197266 4.56762695 C3.68972168 4.71031006 2.8574707 4.85299316 2 5 C-0.42170679 8.63256018 -0.3044503 10.52578695 -0.4140625 14.85546875 C-0.43342865 15.51710526 -0.4527948 16.17874176 -0.4727478 16.86042786 C-0.53242687 18.96932164 -0.57888087 21.07827037 -0.625 23.1875 C-0.66319066 24.61916415 -0.70224303 26.05080559 -0.7421875 27.48242188 C-0.83811773 30.98807312 -0.92219197 34.49389445 -1 38 C-1.33 38 -1.66 38 -2 38 C-2.33 27.77 -2.66 17.54 -3 7 C-3.99 6.67 -4.98 6.34 -6 6 C-4.95125002 3.37812506 -4.35068687 2.20628639 -1.875 0.75 C-1.25625 0.5025 -0.6375 0.255 0 0 Z " fill="#2E2E2E" transform="translate(349,2)"/>
<path d="M0 0 C2.31 0.33 4.62 0.66 7 1 C7.33 2.65 7.66 4.3 8 6 C6.68 6.33 5.36 6.66 4 7 C4 7.66 4 8.32 4 9 C4.99 9 5.98 9 7 9 C7 10.98 7 12.96 7 15 C4.36 15 1.72 15 -1 15 C-1 11.66666667 -1 8.33333333 -1 5 C0.65 5 2.3 5 4 5 C1.525 4.01 1.525 4.01 -1 3 C-0.67 2.01 -0.34 1.02 0 0 Z " fill="#1B1B1B" transform="translate(342,288)"/>
<path d="M0 0 C4.73207005 -0.1737205 9.46226568 -0.30037162 14.19677734 -0.38452148 C15.8051793 -0.4196133 17.41335968 -0.46730247 19.02099609 -0.52807617 C32.60382644 -1.02849624 32.60382644 -1.02849624 36.11279297 1.55639648 C37.53125 3.46875 37.53125 3.46875 38.71728516 5.39477539 C39.89643403 7.16949061 39.89643403 7.16949061 42.02099609 7.66967773 C44.32868965 7.90478913 46.55603282 7.97090885 48.875 7.9375 C49.65875 7.95361328 50.4425 7.96972656 51.25 7.98632812 C53.16635148 8.02138334 55.08338614 8.0149402 57 8 C56.67 8.66 56.34 9.32 56 10 C50.39 10 44.78 10 39 10 C39 9.34 39 8.68 39 8 C38.34 8 37.68 8 37 8 C34.375 5.625 34.375 5.625 32 3 C32 2.34 32 1.68 32 1 C21.44 1 10.88 1 0 1 C0 0.67 0 0.34 0 0 Z " fill="#424242" transform="translate(136,284)"/>
<path d="M0 0 C0.66 0 1.32 0 2 0 C3.515625 1.57421875 3.515625 1.57421875 5.25 3.6875 C8.24106935 7.21733339 11.43612046 10.04273825 15 13 C16.56819657 14.72421613 18.05911037 16.49589488 19.54296875 18.29296875 C20.91452485 19.89985887 22.34821758 21.35453031 23.875 22.8125 C26 25 26 25 26 27 C29.3 27 32.6 27 36 27 C31.46100207 29.26949896 29.81534987 29.24842404 25 28 C23.5625 25.9375 23.5625 25.9375 23 24 C22.34 24 21.68 24 21 24 C19.29006566 22.3777546 17.62652316 20.70586575 16 19 C15.401875 18.443125 14.80375 17.88625 14.1875 17.3125 C13 16 13 16 13 14 C12.34 14 11.68 14 11 14 C11 13.34 11 12.68 11 12 C10.38125 11.7525 9.7625 11.505 9.125 11.25 C6.64931313 9.79371361 6.04874998 8.62187494 5 6 C4.34 6 3.68 6 3 6 C1.375 4.6875 1.375 4.6875 0 3 C0 2.01 0 1.02 0 0 Z " fill="#0F0F0F" transform="translate(366,52)"/>
<path d="M0 0 C0.33 0 0.66 0 1 0 C1.33 8.91 1.66 17.82 2 27 C1.01 27.33 0.02 27.66 -1 28 C-0.67 29.32 -0.34 30.64 0 32 C1.32 32.33 2.64 32.66 4 33 C3.67 33.66 3.34 34.32 3 35 C1.35 35 -0.3 35 -2 35 C-2.495 33.515 -2.495 33.515 -3 32 C-5.97 32.495 -5.97 32.495 -9 33 C-9.33 32.34 -9.66 31.68 -10 31 C-9.01 31 -8.02 31 -7 31 C-6.67 30.01 -6.34 29.02 -6 28 C-5.34 28 -4.68 28 -4 28 C-3.34 26.35 -2.68 24.7 -2 23 C-1.67 23 -1.34 23 -1 23 C-0.67 15.41 -0.34 7.82 0 0 Z " fill="#1D1D1D" transform="translate(340,11)"/>
<path d="M0 0 C4.95 0.495 4.95 0.495 10 1 C10 1.33 10 1.66 10 2 C9.35933594 2.06316406 8.71867187 2.12632813 8.05859375 2.19140625 C7.19363281 2.31386719 6.32867187 2.43632813 5.4375 2.5625 C4.59058594 2.66691406 3.74367188 2.77132813 2.87109375 2.87890625 C-0.28267665 4.1103785 -0.84462514 4.96311996 -2.88476562 7.52734375 C-6.09486732 10.79645341 -8.28647617 11.53935067 -12.84350586 11.79467773 C-15.13425084 11.7935773 -17.42519563 11.75448298 -19.71484375 11.68359375 C-20.92572159 11.67368912 -22.13659943 11.66378448 -23.38417053 11.65357971 C-27.23653298 11.61451938 -31.08600458 11.52670062 -34.9375 11.4375 C-37.55529728 11.4023759 -40.1731394 11.37043885 -42.79101562 11.34179688 C-49.19499009 11.26478402 -55.5972885 11.14777366 -62 11 C-62 10.67 -62 10.34 -62 10 C-61.34933563 9.99857498 -60.69867126 9.99714996 -60.02828979 9.99568176 C-53.24694842 9.97597265 -46.4665057 9.92167222 -39.68554688 9.84741211 C-37.1559901 9.82423639 -34.62633688 9.80983743 -32.09667969 9.80444336 C-28.45707122 9.79515135 -24.81897879 9.7541507 -21.1796875 9.70703125 C-19.48717361 9.71293022 -19.48717361 9.71293022 -17.76046753 9.71894836 C-11.0510514 9.6649152 -11.0510514 9.6649152 -5.30126953 6.58081055 C-3.00970174 4.23730283 -3.00970174 4.23730283 -2 2 C-1.34 2 -0.68 2 0 2 C0 1.34 0 0.68 0 0 Z " fill="#2C2C2C" transform="translate(254,4)"/>
<path d="M0 0 C0.66 0 1.32 0 2 0 C1.43991823 3.58607913 0.29868576 4.93855609 -2.5 7.1875 C-3.18586182 7.77539307 -3.87172363 8.36328613 -4.57836914 8.96899414 C-7 11 -7 11 -9.37084961 12.68847656 C-13.43848024 15.96766217 -16.07011756 18.85445457 -16.81884766 24.1027832 C-17.21533643 28.92300917 -17.14686449 33.73110117 -17.0625 38.5625 C-17.06557915 40.25587172 -17.07270527 41.94924117 -17.08398438 43.64257812 C-17.10270183 47.76317263 -17.06648857 51.87993541 -17 56 C-17.33 56 -17.66 56 -18 56 C-18.1489943 50.85893273 -18.25751582 45.71913798 -18.32958984 40.57641602 C-18.35965146 38.82944837 -18.40051371 37.08263028 -18.45263672 35.33618164 C-18.5259298 32.81619293 -18.55956001 30.2982086 -18.5859375 27.77734375 C-18.61690521 27.00414291 -18.64787292 26.23094208 -18.67977905 25.43431091 C-18.68307609 20.04889197 -17.29426241 17.35348834 -13.58486938 13.46681213 C-11.14437153 11.20810747 -8.55418722 9.12848935 -6 7 C-4.37729888 5.15707515 -2.82270706 3.27916562 -1.296875 1.35546875 C-0.86890625 0.90816406 -0.4409375 0.46085938 0 0 Z " fill="#262626" transform="translate(145,153)"/>
<path d="M0 0 C4.875 1.75 4.875 1.75 6 4 C6.01428045 5.95927838 5.93918365 7.91976934 5.8125 9.875 C5.75707031 10.92429688 5.70164062 11.97359375 5.64453125 13.0546875 C4.88576811 16.52200511 3.69183308 17.7666956 1 20 C-0.1482685 17.703463 -0.11561175 16.41686833 -0.09765625 13.8671875 C-0.09443359 13.06152344 -0.09121094 12.25585938 -0.08789062 11.42578125 C-0.07951172 10.58402344 -0.07113281 9.74226562 -0.0625 8.875 C-0.05798828 8.02550781 -0.05347656 7.17601562 -0.04882812 6.30078125 C-0.03702874 4.20049091 -0.01909306 2.1002367 0 0 Z " fill="#111111" transform="translate(47,132)"/>
<path d="M0 0 C1.39456452 0.00667256 2.78911118 0.01863093 4.18359375 0.03515625 C4.89451172 0.03966797 5.60542969 0.04417969 6.33789062 0.04882812 C8.09899388 0.06064761 9.86005411 0.07858362 11.62109375 0.09765625 C11.62109375 2.07765625 11.62109375 4.05765625 11.62109375 6.09765625 C3.70109375 6.59265625 3.70109375 6.59265625 -4.37890625 7.09765625 C-4.37890625 0.12655798 -4.37890625 0.12655798 0 0 Z " fill="#161616" transform="translate(75.37890625,309.90234375)"/>
<path d="M0 0 C0 3 0 3 -1.35546875 4.4296875 C-1.96003906 4.90664063 -2.56460938 5.38359375 -3.1875 5.875 C-7.13607655 9.02353816 -10.59255775 12.55859453 -14.11450195 16.16552734 C-16.59166819 18.69913663 -19.07691035 21.22465606 -21.5625 23.75 C-22.41263672 24.62527344 -23.26277344 25.50054687 -24.13867188 26.40234375 C-24.96044922 27.23378906 -25.78222656 28.06523438 -26.62890625 28.921875 C-27.37213135 29.68081055 -28.11535645 30.43974609 -28.88110352 31.22167969 C-31.00820521 33.00688636 -32.28640635 33.61481012 -35 34 C-35 33.34 -35 32.68 -35 32 C-34.01 31.67 -33.02 31.34 -32 31 C-29.33932271 28.54399019 -27.03619404 26.0465352 -24.8125 23.1875 C-24.214375 22.465625 -23.61625 21.74375 -23 21 C-22.34 21 -21.68 21 -21 21 C-21 20.34 -21 19.68 -21 19 C-20.34 19 -19.68 19 -19 19 C-19 18.34 -19 17.68 -19 17 C-17.58127897 15.81773248 -16.15857734 14.6398711 -14.71484375 13.48828125 C-12.35596798 11.44105649 -10.4451182 9.10887537 -8.44921875 6.71484375 C-2.77448747 0 -2.77448747 0 0 0 Z " fill="#2F2F2F" transform="translate(280,52)"/>
<path d="M0 0 C0.33 0 0.66 0 1 0 C1.02505615 0.62044189 1.0501123 1.24088379 1.07592773 1.88012695 C1.19196721 4.69112397 1.31465759 7.50179241 1.4375 10.3125 C1.47681641 11.28896484 1.51613281 12.26542969 1.55664062 13.27148438 C1.59853516 14.20927734 1.64042969 15.14707031 1.68359375 16.11328125 C1.72025146 16.97735596 1.75690918 17.84143066 1.79467773 18.73168945 C1.92747354 21.1647826 1.92747354 21.1647826 3 24 C4.31622597 24.69983672 5.65252763 25.36239478 7 26 C8.83105469 27.57226562 8.83105469 27.57226562 10.671875 29.40625 C11.33574219 30.06753906 11.99960937 30.72882813 12.68359375 31.41015625 C13.36550781 32.09980469 14.04742188 32.78945312 14.75 33.5 C15.44738281 34.18964844 16.14476562 34.87929687 16.86328125 35.58984375 C17.52199219 36.25113281 18.18070313 36.91242188 18.859375 37.59375 C19.46233398 38.19896484 20.06529297 38.80417969 20.68652344 39.42773438 C22 41 22 41 22 43 C17.71357676 41.33536962 14.91382783 38.20924163 11.75 35 C11.19570313 34.4534375 10.64140625 33.906875 10.0703125 33.34375 C6 29.2533867 6 29.2533867 6 27 C5.38125 26.731875 4.7625 26.46375 4.125 26.1875 C2 25 2 25 0 22 C-0.22705078 19.63989258 -0.22705078 19.63989258 -0.1953125 16.89453125 C-0.18886719 15.91162109 -0.18242188 14.92871094 -0.17578125 13.91601562 C-0.15902344 12.89185547 -0.14226563 11.86769531 -0.125 10.8125 C-0.11597656 9.77673828 -0.10695313 8.74097656 -0.09765625 7.67382812 C-0.0740786 5.11565315 -0.0411703 2.55794252 0 0 Z " fill="#202020" transform="translate(522,40)"/>
<path d="M0 0 C1.39456452 0.00667256 2.78911118 0.01863093 4.18359375 0.03515625 C4.89451172 0.03966797 5.60542969 0.04417969 6.33789062 0.04882812 C8.09899388 0.06064761 9.86005411 0.07858362 11.62109375 0.09765625 C11.62109375 2.09765625 11.62109375 4.09765625 11.62109375 6.09765625 C3.70109375 6.59265625 3.70109375 6.59265625 -4.37890625 7.09765625 C-4.37890625 0.12655798 -4.37890625 0.12655798 0 0 Z " fill="#171717" transform="translate(75.37890625,301.90234375)"/>
<path d="M0 0 C0.495 0.99 0.495 0.99 1 2 C-3.70428201 7.63188692 -8.75515007 12.83786462 -13.99902344 17.96191406 C-16.8597833 20.70466976 -16.8597833 20.70466976 -19 24 C-21.50390625 24.4140625 -21.50390625 24.4140625 -24.5625 24.625 C-25.57441406 24.69976562 -26.58632813 24.77453125 -27.62890625 24.8515625 C-28.41136719 24.90054688 -29.19382812 24.94953125 -30 25 C-30 25.66 -30 26.32 -30 27 C-30.66 27 -31.32 27 -32 27 C-32 27.66 -32 28.32 -32 29 C-32.99 29.33 -33.98 29.66 -35 30 C-33.70462211 27.11031086 -32.4667388 25.01099029 -30 23 C-27.984375 22.734375 -27.984375 22.734375 -25.75 22.75 C-20.80925476 22.36438086 -18.72109957 20.47529952 -15.5 16.8515625 C-13.65636016 14.57581958 -11.82138616 12.29359739 -10 10 C-9.34 9.67 -8.68 9.34 -8 9 C-7.34444881 6.47266765 -7.34444881 6.47266765 -7 4 C-6.67 4.66 -6.34 5.32 -6 6 C-5.195625 5.195625 -4.39125 4.39125 -3.5625 3.5625 C-2.375 2.375 -1.1875 1.1875 0 0 Z " fill="#272727" transform="translate(419,106)"/>
<path d="M0 0 C0.99 0 1.98 0 3 0 C2.67 5.94 2.34 11.88 2 18 C1.67 16.68 1.34 15.36 1 14 C0.67 14.66 0.34 15.32 0 16 C-0.66 16 -1.32 16 -2 16 C-2.33 16.99 -2.66 17.98 -3 19 C-4.52634923 15.94730154 -3.83794444 13.24154311 -3.5625 9.875 C-3.46066406 8.59367187 -3.35882812 7.31234375 -3.25390625 5.9921875 C-3.12822266 4.51105469 -3.12822266 4.51105469 -3 3 C-2.01 3 -1.02 3 0 3 C0 2.01 0 1.02 0 0 Z " fill="#1D1D1D" transform="translate(517,253)"/>
<path d="M0 0 C0.66 0.33 1.32 0.66 2 1 C-2.08707305 5.13638802 -6.18057878 9.26625792 -10.28027344 13.39013672 C-11.67498149 14.79492308 -13.06789204 16.20149637 -14.45898438 17.60986328 C-16.45497031 19.63001713 -18.4572619 21.64372656 -20.4609375 23.65625 C-21.08495453 24.2905896 -21.70897156 24.9249292 -22.35189819 25.57849121 C-23.8637749 27.09076139 -25.42739652 28.5509829 -27 30 C-27.66 30 -28.32 30 -29 30 C-28.1875 28.0625 -28.1875 28.0625 -27 26 C-26.01 25.67 -25.02 25.34 -24 25 C-24 24.34 -24 23.68 -24 23 C-22.64453125 21.703125 -22.64453125 21.703125 -20.8125 20.25 C-17.43120182 17.45941054 -14.80225164 14.37707249 -12 11 C-10.00334402 9.32932867 -8.00348966 7.66247014 -6 6 C-4.64843325 4.34808509 -3.31037934 2.68477344 -2 1 C-1.34 0.67 -0.68 0.34 0 0 Z " fill="#1E1E1E" transform="translate(381,231)"/>
<path d="M0 0 C5.75 1.875 5.75 1.875 8 3 C8 3.66 8 4.32 8 5 C11.96 5.33 15.92 5.66 20 6 C20 6.33 20 6.66 20 7 C18.77023437 7.07347656 18.77023437 7.07347656 17.515625 7.1484375 C16.43796875 7.22320312 15.3603125 7.29796875 14.25 7.375 C12.64898437 7.47941406 12.64898437 7.47941406 11.015625 7.5859375 C8.19793568 7.9728223 6.4169634 8.55686166 4 10 C1.5 7.75 1.5 7.75 -1 5 C-1 1 -1 1 0 0 Z " fill="#060606" transform="translate(252,206)"/>
<path d="M0 0 C4.62 0 9.24 0 14 0 C14 0.66 14 1.32 14 2 C13.01 2.495 13.01 2.495 12 3 C12.66 3.33 13.32 3.66 14 4 C14 4.66 14 5.32 14 6 C8.72 6 3.44 6 -2 6 C-1.34 4.02 -0.68 2.04 0 0 Z " fill="#161616" transform="translate(487,59)"/>
<path d="M0 0 C0.33 0 0.66 0 1 0 C1 5.61 1 11.22 1 17 C1.66 17 2.32 17 3 17 C2.91952772 19.8165298 2.52438279 21.48909749 0.48046875 23.48046875 C-2.95445919 26.06208827 -2.95445919 26.06208827 -5 27 C-5.99 26.67 -6.98 26.34 -8 26 C-8.33 25.34 -8.66 24.68 -9 24 C-8.4225 23.814375 -7.845 23.62875 -7.25 23.4375 C-3.83113434 21.25322472 -2.24019718 18.77399717 -1 15 C-0.37741097 9.9987063 -0.12961545 5.0355601 0 0 Z " fill="#111111" transform="translate(566,87)"/>
<path d="M0 0 C0.66 0 1.32 0 2 0 C2 2 2 2 -0.25 4.375 C-1.1575 5.24125 -2.065 6.1075 -3 7 C-3.51014648 7.70608398 -4.02029297 8.41216797 -4.54589844 9.13964844 C-8.41933236 12.07593639 -12.28986494 11.49421798 -17.015625 11.390625 C-17.98659119 11.38496521 -18.95755737 11.37930542 -19.95794678 11.37347412 C-23.05580169 11.35110311 -26.15249533 11.30090473 -29.25 11.25 C-31.35154578 11.22993597 -33.45310972 11.21168503 -35.5546875 11.1953125 C-40.7035717 11.1512358 -45.85158903 11.08220258 -51 11 C-51 10.67 -51 10.34 -51 10 C-49.221698 9.97812622 -49.221698 9.97812622 -47.4074707 9.95581055 C-42.99961523 9.89774062 -38.59226596 9.82050816 -34.18481445 9.73754883 C-32.27897369 9.70434038 -30.37303554 9.67629575 -28.46704102 9.65356445 C-25.72369985 9.61994332 -22.98124778 9.56762405 -20.23828125 9.51171875 C-18.96456413 9.50213387 -18.96456413 9.50213387 -17.66511536 9.49235535 C-11.97460157 9.35163626 -8.54428594 8.36050005 -4.26953125 4.39453125 C-3.54830078 3.61142578 -3.54830078 3.61142578 -2.8125 2.8125 C-1.4203125 1.4203125 -1.4203125 1.4203125 0 0 Z " fill="#2D2D2D" transform="translate(355,244)"/>
<path d="M0 0 C0.33 0 0.66 0 1 0 C1.89744368 4.81679908 1.99116361 8.50400155 -0.77832031 12.68408203 C-3.28509308 15.44994613 -5.89706203 18.01478047 -8.625 20.5625 C-9.52863281 21.46291016 -10.43226563 22.36332031 -11.36328125 23.29101562 C-18.75183833 30.43688287 -18.75183833 30.43688287 -25 31 C-24.67 30.34 -24.34 29.68 -24 29 C-23.360625 28.855625 -22.72125 28.71125 -22.0625 28.5625 C-19.61789145 28.13834965 -19.61789145 28.13834965 -18 25 C-17.34 25 -16.68 25 -16 25 C-15.731875 24.360625 -15.46375 23.72125 -15.1875 23.0625 C-14 21 -14 21 -11 20 C-10.67 19.01 -10.34 18.02 -10 17 C-9.34 17 -8.68 17 -8 17 C-7.731875 16.360625 -7.46375 15.72125 -7.1875 15.0625 C-6 13 -6 13 -3 12 C-2.67 11.01 -2.34 10.02 -2 9 C-1.34 9 -0.68 9 0 9 C0 6.03 0 3.06 0 0 Z " fill="#242424" transform="translate(611,223)"/>
<path d="M0 0 C3.89526499 -0.1746354 7.7895219 -0.28096492 11.6875 -0.375 C13.34168945 -0.45041016 13.34168945 -0.45041016 15.02929688 -0.52734375 C19.9718576 -0.616937 23.03305644 -0.62293479 27.25 2.09375 C30.66591647 7.47674398 29.50700644 14.76529568 29.3125 20.875 C29.28739222 22.24475108 29.26458339 23.61454635 29.24414062 24.984375 C29.1853436 28.32404622 29.10319834 31.66145431 29 35 C28.67 35 28.34 35 28 35 C27.67 25.43 27.34 15.86 27 6 C26.01 5.67 25.02 5.34 24 5 C24 4.34 24 3.68 24 3 C21.04491553 2.16628641 18.29890387 1.82110466 15.234375 1.68359375 C14.34492188 1.64169922 13.45546875 1.59980469 12.5390625 1.55664062 C11.61867188 1.51732422 10.69828125 1.47800781 9.75 1.4375 C8.81414063 1.39431641 7.87828125 1.35113281 6.9140625 1.30664062 C4.60951359 1.2008195 2.30486161 1.09873443 0 1 C0 0.67 0 0.34 0 0 Z " fill="#292929" transform="translate(8,122)"/>
<path d="M0 0 C0.99 0 1.98 0 3 0 C3.66 1.32 4.32 2.64 5 4 C6.010625 3.690625 7.02125 3.38125 8.0625 3.0625 C12 3 12 3 14.0234375 4.4921875 C15.77126531 6.26855128 17.41963225 8.0737767 19 10 C18.01 10.33 17.02 10.66 16 11 C15.01 10.34 14.02 9.68 13 9 C12.67 9.66 12.34 10.32 12 11 C11.01 11 10.02 11 9 11 C9 10.34 9 9.68 9 9 C8.34 9 7.68 9 7 9 C7 8.34 7 7.68 7 7 C6.401875 6.731875 5.80375 6.46375 5.1875 6.1875 C3.00152146 5.00082594 1.58667406 3.90400887 0 2 C0 1.34 0 0.68 0 0 Z " fill="#0A0A0A" transform="translate(76,101)"/>
<path d="M0 0 C0.99 0.33 1.98 0.66 3 1 C0.52781178 3.47218822 -0.22562875 3.26532401 -3.63330078 3.31884766 C-4.59414581 3.33871735 -5.55499084 3.35858704 -6.54495239 3.37905884 C-7.58457123 3.39061005 -8.62419006 3.40216125 -9.6953125 3.4140625 C-11.28918289 3.44311172 -11.28918289 3.44311172 -12.91525269 3.4727478 C-16.31841943 3.53266084 -19.72161978 3.57897598 -23.125 3.625 C-25.4284004 3.66316897 -27.73178636 3.70222005 -30.03515625 3.7421875 C-35.68997628 3.83837187 -41.34488283 3.92338481 -47 4 C-47 4.66 -47 5.32 -47 6 C-47.66 6 -48.32 6 -49 6 C-49.33 6.99 -49.66 7.98 -50 9 C-50.99 9.33 -51.98 9.66 -53 10 C-51.51414275 6.53299975 -50.07059752 4.23432011 -47 2 C-43.44306149 1.43021176 -39.92209686 1.53572362 -36.328125 1.609375 C-35.29057068 1.61503479 -34.25301636 1.62069458 -33.184021 1.62652588 C-29.87221008 1.64890509 -26.56148356 1.69910581 -23.25 1.75 C-21.00392188 1.77006294 -18.75782679 1.78831406 -16.51171875 1.8046875 C-11.00744291 1.84877482 -5.50379893 1.91570259 0 2 C0 1.34 0 0.68 0 0 Z " fill="#2B2B2B" transform="translate(348,266)"/>
<path d="M0 0 C5.28 0 10.56 0 16 0 C16 3 16 3 15 6 C10.05 6.33 5.1 6.66 0 7 C0 6.01 0 5.02 0 4 C1.65 4 3.3 4 5 4 C5 3.67 5 3.34 5 3 C3.35 2.67 1.7 2.34 0 2 C0 1.34 0 0.68 0 0 Z " fill="#181818" transform="translate(71,294)"/>
<path d="M0 0 C-0.20625 0.78375 -0.4125 1.5675 -0.625 2.375 C-0.74875 3.24125 -0.8725 4.1075 -1 5 C-0.34 5.66 0.32 6.32 1 7 C-2.75 10 -2.75 10 -5 10 C-5.66 10.66 -6.32 11.32 -7 12 C-9.625 12.125 -9.625 12.125 -12 12 C-12 12.66 -12 13.32 -12 14 C-12.66 14 -13.32 14 -14 14 C-14 13.01 -14 12.02 -14 11 C-12.35 11 -10.7 11 -9 11 C-8.67 10.01 -8.34 9.02 -8 8 C-7.34 8 -6.68 8 -6 8 C-6.66 6.68 -7.32 5.36 -8 4 C-5.29881977 1.17603885 -4.05589853 0 0 0 Z " fill="#161616" transform="translate(105,41)"/>
<path d="M0 0 C1.32 0 2.64 0 4 0 C3.67 18.15 3.34 36.3 3 55 C2.01 55.495 2.01 55.495 1 56 C1.33 38.18 1.66 20.36 2 2 C1.34 2 0.68 2 0 2 C0 1.34 0 0.68 0 0 Z " fill="#333333" transform="translate(597,262)"/>
<path d="M0 0 C0.66 0.33 1.32 0.66 2 1 C0.02 3.31 -1.96 5.62 -4 8 C-3.34 9.32 -2.68 10.64 -2 12 C-2.99 12.66 -3.98 13.32 -5 14 C-5.33 13.67 -5.66 13.34 -6 13 C-6.33 19.93 -6.66 26.86 -7 34 C-7.33 34 -7.66 34 -8 34 C-8.28545983 30.29351054 -8.52200956 26.58543271 -8.75 22.875 C-8.83121094 21.82828125 -8.91242188 20.7815625 -8.99609375 19.703125 C-9.27297006 14.8424075 -9.43080679 11.84675817 -7.1875 7.4375 C-4.87413 4.85974485 -2.51840566 2.37849423 0 0 Z " fill="#323232" transform="translate(306,202)"/>
<path d="M0 0 C1.18916016 0.02707031 1.18916016 0.02707031 2.40234375 0.0546875 C4.35208348 0.10166918 6.30119878 0.17340956 8.25 0.25 C8.25 0.58 8.25 0.91 8.25 1.25 C6.74759766 1.25386719 6.74759766 1.25386719 5.21484375 1.2578125 C-3.48231931 1.22848433 -3.48231931 1.22848433 -11 5.0625 C-13.1153448 7.30768694 -14.93028922 9.75986946 -16.75 12.25 C-17.41 12.25 -18.07 12.25 -18.75 12.25 C-18.75 12.91 -18.75 13.57 -18.75 14.25 C-20.73 14.91 -22.71 15.57 -24.75 16.25 C-24.42 14.93 -24.09 13.61 -23.75 12.25 C-22.1 11.92 -20.45 11.59 -18.75 11.25 C-18.75 10.59 -18.75 9.93 -18.75 9.25 C-17.33811805 8.03064741 -15.9220888 6.81400891 -14.453125 5.6640625 C-12.62740167 4.25337988 -12.62740167 4.25337988 -11.09375 2.1015625 C-7.56772492 -0.68399732 -4.352911 -0.1876877 0 0 Z " fill="#212121" transform="translate(232.75,286.75)"/>
<path d="M0 0 C0.66 0 1.32 0 2 0 C4.41949048 13.20776651 4.41949048 13.20776651 2.06591797 17.83740234 C-0.51185571 21.35758791 -3.6450532 24.21698614 -7 27 C-8.32 26.67 -9.64 26.34 -11 26 C-9.68 25.67 -8.36 25.34 -7 25 C-7 24.34 -7 23.68 -7 23 C-6.38125 22.54625 -5.7625 22.0925 -5.125 21.625 C-2.67774099 19.75356664 -2.07802639 18.87163926 -1 16 C-0.7047806 13.22605167 -0.49287769 10.5299489 -0.375 7.75 C-0.31699219 6.63238281 -0.31699219 6.63238281 -0.2578125 5.4921875 C-0.16394892 3.6618476 -0.08090282 1.83095857 0 0 Z " fill="#1A1A1A" transform="translate(516,218)"/>
<path d="M0 0 C0.66 0 1.32 0 2 0 C2.33 9.57 2.66 19.14 3 29 C2.01 29.33 1.02 29.66 0 30 C0 20.1 0 10.2 0 0 Z " fill="#1D1D1D" transform="translate(28,132)"/>
<path d="M0 0 C0.99 0.33 1.98 0.66 3 1 C2.34 1 1.68 1 1 1 C0.34 2.32 -0.32 3.64 -1 5 C-1.66 5 -2.32 5 -3 5 C-3.433125 6.2065625 -3.433125 6.2065625 -3.875 7.4375 C-5 10 -5 10 -7 11 C-8.45656294 11.12653539 -9.91541593 11.22764046 -11.375 11.3125 C-14.79881104 11.643303 -15.78920156 11.83033296 -18.5625 14.0625 C-19.036875 14.701875 -19.51125 15.34125 -20 16 C-20.66 15.67 -21.32 15.34 -22 15 C-19.0886028 10.76524044 -19.0886028 10.76524044 -17 9 C-15.948125 9.061875 -14.89625 9.12375 -13.8125 9.1875 C-7.59820184 8.88187878 -4.2137684 4.27311725 0 0 Z " fill="#171717" transform="translate(540,296)"/>
<path d="M0 0 C0.33 0 0.66 0 1 0 C1 16.83 1 33.66 1 51 C-0.485 51.495 -0.485 51.495 -2 52 C-1.67 51.01 -1.34 50.02 -1 49 C-0.88528988 47.38975487 -0.8237226 45.77544145 -0.79467773 44.16137695 C-0.77473251 43.1805867 -0.75478729 42.19979645 -0.73423767 41.18928528 C-0.70916893 39.60478828 -0.70916893 39.60478828 -0.68359375 37.98828125 C-0.66281265 36.90491989 -0.64203156 35.82155853 -0.62062073 34.70536804 C-0.55518203 31.24114384 -0.49626647 27.7768432 -0.4375 24.3125 C-0.39430939 21.96548685 -0.35069493 19.61848147 -0.30664062 17.27148438 C-0.19950643 11.51440396 -0.09772936 5.75724733 0 0 Z " fill="#252525" transform="translate(607,266)"/>
<path d="M0 0 C0.89267578 0.00966797 1.78535156 0.01933594 2.70507812 0.02929688 C4.09823242 0.06700195 4.09823242 0.06700195 5.51953125 0.10546875 C6.45990234 0.11900391 7.40027344 0.13253906 8.36914062 0.14648438 C10.69068163 0.18183779 13.01106778 0.23118201 15.33203125 0.29296875 C15.33203125 0.62296875 15.33203125 0.95296875 15.33203125 1.29296875 C14.17445313 1.30714844 13.016875 1.32132813 11.82421875 1.3359375 C10.28511753 1.38286132 8.74605626 1.43110857 7.20703125 1.48046875 C6.44648438 1.48626953 5.6859375 1.49207031 4.90234375 1.49804688 C-2.45397573 1.78342134 -5.16381987 4.72774307 -10.23046875 9.91796875 C-12.57477091 12.2021606 -14.8030953 13.73775173 -17.66796875 15.29296875 C-17.99796875 14.63296875 -18.32796875 13.97296875 -18.66796875 13.29296875 C-17.96671875 12.94234375 -17.26546875 12.59171875 -16.54296875 12.23046875 C-13.43611224 10.13671762 -11.43923598 7.89755755 -9.09765625 5.01171875 C-8.62585938 4.44453125 -8.1540625 3.87734375 -7.66796875 3.29296875 C-7.2397583 2.76856201 -6.81154785 2.24415527 -6.37036133 1.70385742 C-4.13445068 -0.14919401 -2.87498596 -0.05493604 0 0 Z " fill="#1F1F1F" transform="translate(440.66796875,21.70703125)"/>
<path d="M0 0 C0.99 1.485 0.99 1.485 2 3 C2.99 2.67 3.98 2.34 5 2 C5 5.63 5 9.26 5 13 C4.01 13 3.02 13 2 13 C1.34 13.99 0.68 14.98 0 16 C0 10.72 0 5.44 0 0 Z " fill="#1C1C1C" transform="translate(111,45)"/>
<path d="M0 0 C0.66 0 1.32 0 2 0 C2.22677207 3.56157634 2.42815479 7.12415425 2.625 10.6875 C2.68945312 11.69490234 2.75390625 12.70230469 2.8203125 13.74023438 C2.871875 14.71669922 2.9234375 15.69316406 2.9765625 16.69921875 C3.02893066 17.59471436 3.08129883 18.49020996 3.13525391 19.4128418 C2.98391432 22.30768941 2.20867188 24.38258597 1 27 C0.34 27 -0.32 27 -1 27 C-0.83701416 26.28432861 -0.67402832 25.56865723 -0.50610352 24.83129883 C-0.00807929 22.04519803 0.1141835 19.52537792 0.09765625 16.69921875 C0.09282227 15.23452148 0.09282227 15.23452148 0.08789062 13.74023438 C0.07951172 12.73283203 0.07113281 11.72542969 0.0625 10.6875 C0.05573242 9.14739258 0.05573242 9.14739258 0.04882812 7.57617188 C0.03708184 5.05072118 0.02065565 2.52539095 0 0 Z " fill="#1D1D1D" transform="translate(514,35)"/>
<path d="M0 0 C0 0.99 0 1.98 0 3 C-1.27821086 4.10351234 -2.59824285 5.15893168 -3.9375 6.1875 C-8.47476673 10.55671982 -8.9080241 14.63680155 -9.04833984 20.62573242 C-9.05873459 22.75145795 -9.03038489 24.87450478 -9 27 C-9.00810376 28.45705584 -9.01979191 29.91409638 -9.03515625 31.37109375 C-9.06480068 34.9148379 -9.04582326 38.45633444 -9 42 C-9.33 42 -9.66 42 -10 42 C-10.24929646 37.4654891 -10.4295585 32.93504657 -10.54931641 28.39526367 C-10.59927231 26.85549395 -10.66727252 25.31619065 -10.75439453 23.77807617 C-11.46066189 10.97801891 -11.46066189 10.97801891 -7.72949219 5.92529297 C-5.25410157 3.69744141 -2.81218853 1.77767092 0 0 Z " fill="#303030" transform="translate(511,153)"/>
<path d="M0 0 C0.99 0.33 1.98 0.66 3 1 C3.99 0.67 4.98 0.34 6 0 C7.56118428 -0.06740865 9.1250252 -0.08514456 10.6875 -0.0625 C11.89986328 -0.04896484 11.89986328 -0.04896484 13.13671875 -0.03515625 C14.05904297 -0.01775391 14.05904297 -0.01775391 15 0 C15 0.66 15 1.32 15 2 C13.84371094 2.03867188 13.84371094 2.03867188 12.6640625 2.078125 C11.66117187 2.13484375 10.65828125 2.1915625 9.625 2.25 C8.62726563 2.29640625 7.62953125 2.3428125 6.6015625 2.390625 C3.8473523 2.72160885 3.8473523 2.72160885 2.6484375 5.046875 C2.43445313 5.69140625 2.22046875 6.3359375 2 7 C1.34 7 0.68 7 0 7 C0 7.66 0 8.32 0 9 C-0.99 9.33 -1.98 9.66 -3 10 C-3.33 9.34 -3.66 8.68 -4 8 C-3.01 8 -2.02 8 -1 8 C-1.33 7.01 -1.66 6.02 -2 5 C-1.34 4.67 -0.68 4.34 0 4 C-0.66 3.67 -1.32 3.34 -2 3 C-1 1 -1 1 0 0 Z " fill="#252525" transform="translate(409,97)"/>
<path d="M0 0 C0.66 0.33 1.32 0.66 2 1 C0.76168167 5.67809147 -1.7078161 7.60764034 -5.3203125 10.515625 C-7.45459015 12.40173083 -8.67821968 14.49557413 -10 17 C-10.66 17.66 -11.32 18.32 -12 19 C-12.33 18.01 -12.66 17.02 -13 16 C-15.64 15.67 -18.28 15.34 -21 15 C-21 14.67 -21 14.34 -21 14 C-15.555 13.505 -15.555 13.505 -10 13 C-10 12.34 -10 11.68 -10 11 C-8.57421875 9.66796875 -8.57421875 9.66796875 -6.6875 8.1875 C-3.71432895 5.7379441 -1.74467425 3.48934851 0 0 Z " fill="#282828" transform="translate(405,94)"/>
<path d="M0 0 C1.32 0.33 2.64 0.66 4 1 C3.21654285 2.17219543 2.42297164 3.33763668 1.625 4.5 C1.18414063 5.1496875 0.74328125 5.799375 0.2890625 6.46875 C-0.13632812 6.9740625 -0.56171875 7.479375 -1 8 C-1.66 8 -2.32 8 -3 8 C-3 8.66 -3 9.32 -3 10 C-4.875 12.125 -4.875 12.125 -7 14 C-7.66 14 -8.32 14 -9 14 C-9 14.66 -9 15.32 -9 16 C-9.66 16 -10.32 16 -11 16 C-11.33 16.99 -11.66 17.98 -12 19 C-14.5625 20.6875 -14.5625 20.6875 -17 22 C-15.65327523 18.97635381 -14.17392983 16.95969814 -11.77734375 14.6875 C-11.15666016 14.08679688 -10.53597656 13.48609375 -9.89648438 12.8671875 C-8.58844655 11.62044357 -7.278542 10.37565526 -5.96679688 9.1328125 C-5.34740234 8.53210938 -4.72800781 7.93140625 -4.08984375 7.3125 C-3.52128662 6.77238281 -2.95272949 6.23226563 -2.36694336 5.67578125 C-0.83361518 3.79602333 -0.40548537 2.36904099 0 0 Z " fill="#202020" transform="translate(534,259)"/>
<path d="M0 0 C0 0.99 0 1.98 0 3 C-0.33 3.33 -0.66 3.66 -1 4 C-1.05151853 6.93369392 -1.04167524 9.84486176 -0.9921875 12.77734375 C-0.97467117 14.58788502 -0.95776289 16.39843226 -0.94140625 18.20898438 C-0.91040528 21.07755805 -0.87486554 23.94583833 -0.82861328 26.81420898 C-0.78640338 29.57279193 -0.76286836 32.33102694 -0.7421875 35.08984375 C-0.72356659 35.9513353 -0.70494568 36.81282684 -0.6857605 37.70042419 C-0.67529297 40.11694336 -0.67529297 40.11694336 -1 44 C-1.99 44.66 -2.98 45.32 -4 46 C-3.93316138 39.7699526 -3.84342045 33.54054079 -3.73754883 27.31103516 C-3.7042404 25.19066926 -3.6762271 23.07021343 -3.65356445 20.94970703 C-3.62012697 17.90618465 -3.56781747 14.86349088 -3.51171875 11.8203125 C-3.50532883 10.86818878 -3.4989389 9.91606506 -3.49235535 8.93508911 C-3.47256119 8.05432709 -3.45276703 7.17356506 -3.43237305 6.26611328 C-3.42126999 5.48889923 -3.41016693 4.71168518 -3.39872742 3.91091919 C-3 2 -3 2 0 0 Z " fill="#282828" transform="translate(568,156)"/>
<path d="M0 0 C2.64 0 5.28 0 8 0 C6.515 1.485 6.515 1.485 5 3 C5.99 3.66 6.98 4.32 8 5 C7.01 6.32 6.02 7.64 5 9 C5.99 8.67 6.98 8.34 8 8 C8 8.66 8 9.32 8 10 C5.36 10 2.72 10 0 10 C0 9.34 0 8.68 0 8 C0.99 7.67 1.98 7.34 3 7 C2.01 6.67 1.02 6.34 0 6 C0 4.02 0 2.04 0 0 Z " fill="#2C2C2C" transform="translate(111,131)"/>
<path d="M0 0 C0.66 0 1.32 0 2 0 C2 0.66 2 1.32 2 2 C3.32 2.66 4.64 3.32 6 4 C6 4.66 6 5.32 6 6 C7.32 6.66 8.64 7.32 10 8 C10 8.66 10 9.32 10 10 C10.804375 10.226875 11.60875 10.45375 12.4375 10.6875 C13.7059375 11.3371875 13.7059375 11.3371875 15 12 C15.8125 14.625 15.8125 14.625 16 17 C14.68 16.34 13.36 15.68 12 15 C12 14.34 12 13.68 12 13 C11.34 13 10.68 13 10 13 C10 12.34 10 11.68 10 11 C9.34 11 8.68 11 8 11 C6.5625 9.50390625 6.5625 9.50390625 5 7.5625 C2.85474956 4.84811762 2.85474956 4.84811762 0 3 C0 2.01 0 1.02 0 0 Z " fill="#151515" transform="translate(238,235)"/>
<path d="M0 0 C0 4.38968456 -2.12805101 5.76905739 -5 9 C-4.67 9.66 -4.34 10.32 -4 11 C-4.99 11.33 -5.98 11.66 -7 12 C-7 16.62 -7 21.24 -7 26 C-7.66 26 -8.32 26 -9 26 C-9.33 26.66 -9.66 27.32 -10 28 C-9.67 21.4 -9.34 14.8 -9 8 C-8.34 8 -7.68 8 -7 8 C-7 7.34 -7 6.68 -7 6 C-5.46875 4.4921875 -5.46875 4.4921875 -3.5 2.875 C-2.8503125 2.33617188 -2.200625 1.79734375 -1.53125 1.2421875 C-0.77328125 0.62730469 -0.77328125 0.62730469 0 0 Z " fill="#2A2A2A" transform="translate(55,98)"/>
<path d="M0 0 C0.33 0 0.66 0 1 0 C1.72849855 3.87060848 1.88632571 7.14472534 1 11 C-2.77802797 15.78166654 -7.6783906 21.12701584 -14 22 C-12.56776641 18.41941602 -11.358297 17.6791485 -8 16 C-4.81952341 13.68040429 -2.37679587 11.55879935 -1.4296875 7.640625 C-1.27261677 6.04965055 -1.16166999 4.45318973 -1.10546875 2.85546875 C-1 1 -1 1 0 0 Z " fill="#202020" transform="translate(19,82)"/>
<path d="M0 0 C1.65 0 3.3 0 5 0 C-2.33333333 7.33333333 -9.66666667 14.66666667 -17 22 C-17 18.47967572 -16.29648649 17.5614657 -14 15 C-13.34 15 -12.68 15 -12 15 C-12 14.34 -12 13.68 -12 13 C-10.35648543 11.63823078 -8.68477344 10.31037934 -7 9 C-3.98531292 6.19563993 -1.56543178 3.84242345 0 0 Z " fill="#202020" transform="translate(39,60)"/>
<path d="M0 0 C3.3 0 6.6 0 10 0 C10 0.33 10 0.66 10 1 C8.741875 1.020625 7.48375 1.04125 6.1875 1.0625 C3.96973686 1.23267378 3.96973686 1.23267378 2 2 C0.26931729 5.454817 0.26931729 5.454817 -1 9 C-3.3125 9.75 -3.3125 9.75 -6 10 C-8.02237052 10.95394836 -10.0282696 11.94535351 -12 13 C-12 12.01 -12 11.02 -12 10 C-10.68 10 -9.36 10 -8 10 C-8 9.34 -8 8.68 -8 8 C-6.50390625 6.5625 -6.50390625 6.5625 -4.5625 5 C-1.84811762 2.85474956 -1.84811762 2.85474956 0 0 Z " fill="#1E1E1E" transform="translate(70,198)"/>
<path d="M0 0 C0.99 0 1.98 0 3 0 C3 0.66 3 1.32 3 2 C3.66 2 4.32 2 5 2 C5 2.66 5 3.32 5 4 C5.66 4 6.32 4 7 4 C7 4.66 7 5.32 7 6 C7.66 6 8.32 6 9 6 C9 6.66 9 7.32 9 8 C9.66 8 10.32 8 11 8 C12.28430862 9.47695491 13.56580708 10.95806138 14.78125 12.4921875 C16.06784671 14.13813095 16.06784671 14.13813095 18 16 C17.01 16.66 16.02 17.32 15 18 C14.4225 17.05125 13.845 16.1025 13.25 15.125 C11.35627549 11.98457551 11.35627549 11.98457551 9 11 C5.92681441 9.4634072 4.78054256 6.87184284 3 4 C2.01133494 2.65824027 1.0161846 1.32103998 0 0 Z " fill="#121212" transform="translate(232,241)"/>
<path d="M0 0 C0.66 0.66 1.32 1.32 2 2 C2.66 1.34 3.32 0.68 4 0 C4.66 0.33 5.32 0.66 6 1 C6 1.66 6 2.32 6 3 C5.34 3 4.68 3 4 3 C4 3.66 4 4.32 4 5 C3.34 5 2.68 5 2 5 C1.34 6.65 0.68 8.3 0 10 C-1.32 9.67 -2.64 9.34 -4 9 C-3.67 6.36 -3.34 3.72 -3 1 C-2.01 0.67 -1.02 0.34 0 0 Z " fill="#202020" transform="translate(256,82)"/>
<path d="M0 0 C1.16337891 0.00966797 2.32675781 0.01933594 3.52539062 0.02929688 C4.74033203 0.05443359 5.95527344 0.07957031 7.20703125 0.10546875 C8.43357422 0.11900391 9.66011719 0.13253906 10.92382812 0.14648438 C13.95616789 0.18188134 16.98763121 0.23126115 20.01953125 0.29296875 C20.01953125 0.62296875 20.01953125 0.95296875 20.01953125 1.29296875 C11.76953125 1.29296875 3.51953125 1.29296875 -4.98046875 1.29296875 C-4.98046875 1.95296875 -4.98046875 2.61296875 -4.98046875 3.29296875 C-4.32046875 3.62296875 -3.66046875 3.95296875 -2.98046875 4.29296875 C-3.76421875 4.58171875 -4.54796875 4.87046875 -5.35546875 5.16796875 C-8.07718507 6.14209129 -8.07718507 6.14209129 -9.98046875 8.29296875 C-9.63254866 5.71836009 -9.32847322 3.78398278 -7.8112793 1.64331055 C-5.18279955 -0.29536414 -3.2382159 -0.04738853 0 0 Z " fill="#363636" transform="translate(259.98046875,312.70703125)"/>
<path d="M0 0 C2.0625 0.4375 2.0625 0.4375 4 1 C3.34 1 2.68 1 2 1 C2 1.66 2 2.32 2 3 C-10.54 3 -23.08 3 -36 3 C-36 2.67 -36 2.34 -36 2 C-34.41747437 1.96241577 -34.41747437 1.96241577 -32.80297852 1.92407227 C-28.90229372 1.83015891 -25.00179375 1.72989966 -21.10131836 1.62768555 C-19.41060701 1.58427561 -17.71985009 1.54260511 -16.02905273 1.50268555 C-13.60386394 1.44512906 -11.17890585 1.38139351 -8.75390625 1.31640625 C-7.99348526 1.29969376 -7.23306427 1.28298126 -6.44960022 1.26576233 C-2.92917969 1.47908732 -2.92917969 1.47908732 0 0 Z " fill="#282828" transform="translate(310,31)"/>
<path d="M0 0 C0 0.99 0 1.98 0 3 C-0.66 3 -1.32 3 -2 3 C-2.0928125 3.86625 -2.0928125 3.86625 -2.1875 4.75 C-3.39462943 8.09281995 -4.99295178 9.12059486 -8 11 C-10.95748773 11.47435147 -13.82709114 11.38012679 -16.8125 11.25 C-17.99489258 11.22292969 -17.99489258 11.22292969 -19.20117188 11.1953125 C-21.13464261 11.14844048 -23.06748285 11.0767041 -25 11 C-25 10.67 -25 10.34 -25 10 C-19.72 10 -14.44 10 -9 10 C-9 9.34 -9 8.68 -9 8 C-8.34 8 -7.68 8 -7 8 C-6.67 7.01 -6.34 6.02 -6 5 C-5.34 5 -4.68 5 -4 5 C-3.896875 4.360625 -3.79375 3.72125 -3.6875 3.0625 C-3.460625 2.381875 -3.23375 1.70125 -3 1 C-2.01 0.67 -1.02 0.34 0 0 Z " fill="#1E1E1E" transform="translate(415,17)"/>
<path d="M0 0 C1.32 0 2.64 0 4 0 C4 0.66 4 1.32 4 2 C4.66 2 5.32 2 6 2 C6 2.66 6 3.32 6 4 C6.598125 4.268125 7.19625 4.53625 7.8125 4.8125 C9.99847854 5.99917406 11.41332594 7.09599113 13 9 C13 9.66 13 10.32 13 11 C13.66 11 14.32 11 15 11 C15 11.66 15 12.32 15 13 C12.36 13 9.72 13 7 13 C7 12.34 7 11.68 7 11 C7.99 10.67 8.98 10.34 10 10 C9.4946875 9.60167969 8.989375 9.20335937 8.46875 8.79296875 C7.49421875 7.99826172 7.49421875 7.99826172 6.5 7.1875 C5.52546875 6.40439453 5.52546875 6.40439453 4.53125 5.60546875 C3 4 3 4 3 1 C2.01 0.67 1.02 0.34 0 0 Z " fill="#191919" transform="translate(171,6)"/>
<path d="M0 0 C0.66 0 1.32 0 2 0 C1.67 0.99 1.34 1.98 1 3 C0.85507877 4.40664926 0.75371069 5.8181133 0.68359375 7.23046875 C0.64169922 8.03291016 0.59980469 8.83535156 0.55664062 9.66210938 C0.49766602 10.91217773 0.49766602 10.91217773 0.4375 12.1875 C0.39431641 13.03248047 0.35113281 13.87746094 0.30664062 14.74804688 C0.20068482 16.83184433 0.0998498 18.91590103 0 21 C-0.66 21 -1.32 21 -2 21 C-2.05791844 17.87507749 -2.09356746 14.75029234 -2.125 11.625 C-2.14175781 10.73554687 -2.15851563 9.84609375 -2.17578125 8.9296875 C-2.18222656 8.07890625 -2.18867187 7.228125 -2.1953125 6.3515625 C-2.20578613 5.56604004 -2.21625977 4.78051758 -2.22705078 3.97119141 C-2 2 -2 2 0 0 Z " fill="#202020" transform="translate(5,48)"/>
<path d="M0 0 C0.33 0 0.66 0 1 0 C1.10806144 2.91765891 1.18732877 5.83131125 1.25 8.75 C1.30027344 9.9875 1.30027344 9.9875 1.3515625 11.25 C1.41275553 15.04396777 1.44117482 17.30430124 -0.625 20.5625 C-3.69368361 22.41986113 -5.68757536 22.40488803 -9.25 22.25 C-10.32765625 22.21390625 -11.4053125 22.1778125 -12.515625 22.140625 C-13.74539062 22.07101562 -13.74539062 22.07101562 -15 22 C-15 21.67 -15 21.34 -15 21 C-11.37 21 -7.74 21 -4 21 C-3.34 19.68 -2.68 18.36 -2 17 C-1.67 16.67 -1.34 16.34 -1 16 C-0.76321284 13.30764224 -0.57801975 10.63501844 -0.4375 7.9375 C-0.39431641 7.17888672 -0.35113281 6.42027344 -0.30664062 5.63867188 C-0.20026367 3.75934562 -0.09960066 1.87969756 0 0 Z " fill="#282828" transform="translate(63,267)"/>
<path d="M0 0 C0.042721 1.66611905 0.04063832 3.33382885 0 5 C-1 6 -1 6 -4.5625 6.0625 C-5.696875 6.041875 -6.83125 6.02125 -8 6 C-7.814375 5.38125 -7.62875 4.7625 -7.4375 4.125 C-6.76313824 1.95839822 -6.76313824 1.95839822 -8 0 C-5.13822943 -1.43088528 -3.06624227 -0.59991697 0 0 Z " fill="#1C1C1C" transform="translate(519,182)"/>
<path d="M0 0 C-0.66 1.32 -1.32 2.64 -2 4 C-12.89 4 -23.78 4 -35 4 C-35 3.67 -35 3.34 -35 3 C-34.10692139 2.98018066 -33.21384277 2.96036133 -32.29370117 2.93994141 C-28.97799292 2.86181302 -25.66273838 2.77512029 -22.34741211 2.68261719 C-20.91292932 2.64435134 -19.47835135 2.60949419 -18.04370117 2.578125 C-15.98061122 2.53242138 -13.91817505 2.47443807 -11.85546875 2.4140625 C-10.61434326 2.3826416 -9.37321777 2.3512207 -8.09448242 2.31884766 C-4.8047041 1.9798772 -3.14493386 0 0 0 Z " fill="#282828" transform="translate(325,111)"/>
<path d="M0 0 C0.33 0 0.66 0 1 0 C1.7400402 5.3995526 2.35224546 10.08014533 -0.8984375 14.6953125 C-3.18008505 16.93265621 -5.52211049 18.98430749 -8 21 C-9.01315617 21.98666842 -10.01922552 22.98113719 -11 24 C-11.66 23.67 -12.32 23.34 -13 23 C-11.9790625 21.9790625 -11.9790625 21.9790625 -10.9375 20.9375 C-10.48761719 20.47472656 -10.03773438 20.01195312 -9.57421875 19.53515625 C-8 18 -8 18 -6.14453125 16.49609375 C-2.00283773 12.95217043 -0.55062679 10.5733807 -0.0625 5.0625 C-0.01028348 3.37567941 0.02136068 1.68749341 0 0 Z " fill="#373737" transform="translate(480,144)"/>
<path d="M0 0 C3.07618755 0.57957157 3.79255537 0.73532926 5.8125 3.3125 C7 6 7 6 6.6875 8.3125 C6.460625 8.869375 6.23375 9.42625 6 10 C4.125 9.5 4.125 9.5 2 8 C1.01505446 5.34822355 0.54087618 2.79452693 0 0 Z " fill="#0B0B0B" transform="translate(564,223)"/>
<path d="M0 0 C0.66 0 1.32 0 2 0 C3.35862973 3.90480249 2.89469712 7.7101776 2.5625 11.75 C2.51029297 12.44738281 2.45808594 13.14476562 2.40429688 13.86328125 C2.27525928 15.57596203 2.13840386 17.28805066 2 19 C1.34 19 0.68 19 0 19 C0 12.73 0 6.46 0 0 Z " fill="#1B1B1B" transform="translate(586,164)"/>
<path d="M0 0 C0 0.66 0 1.32 0 2 C0.66 1.67 1.32 1.34 2 1 C3.54023996 0.93049459 5.08334988 0.91547643 6.625 0.9375 C7.85089844 0.95103516 7.85089844 0.95103516 9.1015625 0.96484375 C10.04128906 0.98224609 10.04128906 0.98224609 11 1 C11 1.33 11 1.66 11 2 C8.69 2 6.38 2 4 2 C4 4.31 4 6.62 4 9 C2 5.25 2 5.25 2 3 C-0.97 2.67 -3.94 2.34 -7 2 C-7 3.65 -7 5.3 -7 7 C-7.33 7 -7.66 7 -8 7 C-8 5.02 -8 3.04 -8 1 C-5.23735711 0.40267181 -2.83967231 0 0 0 Z " fill="#414141" transform="translate(179,257)"/>
<path d="M0 0 C0.66 0.33 1.32 0.66 2 1 C2.625 4.0625 2.625 4.0625 3 7 C2.01 7.33 1.02 7.66 0 8 C-0.33 8.99 -0.66 9.98 -1 11 C-1.66 11 -2.32 11 -3 11 C-2.8864371 9.35333797 -2.75882619 7.70763918 -2.625 6.0625 C-2.55539062 5.14597656 -2.48578125 4.22945313 -2.4140625 3.28515625 C-2.27742188 2.53105469 -2.14078125 1.77695313 -2 1 C-1.34 0.67 -0.68 0.34 0 0 Z " fill="#080808" transform="translate(403,102)"/>
<path d="M0 0 C0.33 0 0.66 0 1 0 C1.33 8.25 1.66 16.5 2 25 C1.34 25 0.68 25 0 25 C-0.66 26.32 -1.32 27.64 -2 29 C-2.66 29 -3.32 29 -4 29 C-2.125 25.125 -2.125 25.125 -1 24 C-0.84235595 22.22130274 -0.74899323 20.43681524 -0.68359375 18.65234375 C-0.64169922 17.57275391 -0.59980469 16.49316406 -0.55664062 15.38085938 C-0.51732422 14.24455078 -0.47800781 13.10824219 -0.4375 11.9375 C-0.39431641 10.79732422 -0.35113281 9.65714844 -0.30664062 8.48242188 C-0.20017161 5.65507805 -0.09815793 2.82764262 0 0 Z " fill="#2B2B2B" transform="translate(331,80)"/>
<path d="M0 0 C1.5625 1.75 1.5625 1.75 3 4 C2.875 6.1875 2.875 6.1875 2 8 C-1 9 -1 9 -4 8 C-4 6.35 -4 4.7 -4 3 C-3.34 3 -2.68 3 -2 3 C-2 2.34 -2 1.68 -2 1 C-1.34 0.67 -0.68 0.34 0 0 Z " fill="#1B1B1B" transform="translate(111,36)"/>
<path d="M0 0 C5.5952381 0.5952381 5.5952381 0.5952381 8 3 C6.02 3.66 4.04 4.32 2 5 C2.33 8.96 2.66 12.92 3 17 C2.34 17 1.68 17 1 17 C1 12.05 1 7.1 1 2 C0.34 1.67 -0.32 1.34 -1 1 C-0.67 0.67 -0.34 0.34 0 0 Z " fill="#2D2D2D" transform="translate(364,19)"/>
<path d="M0 0 C1.5 1.375 1.5 1.375 3 3 C3 3.66 3 4.32 3 5 C3.5775 5.2475 4.155 5.495 4.75 5.75 C7.32939979 7.18299988 9.06121592 8.78424676 11 11 C11 11.66 11 12.32 11 13 C11.66 13 12.32 13 13 13 C13 13.66 13 14.32 13 15 C12.01 14.67 11.02 14.34 10 14 C10 13.34 10 12.68 10 12 C9.01 12 8.02 12 7 12 C2 6.65116279 2 6.65116279 2 4 C1.34 4 0.68 4 0 4 C0 2.68 0 1.36 0 0 Z " fill="#151515" transform="translate(230,246)"/>
<path d="M0 0 C0.66 0 1.32 0 2 0 C2 0.66 2 1.32 2 2 C1.34 2 0.68 2 0 2 C-0.66 3.32 -1.32 4.64 -2 6 C-2.66 6 -3.32 6 -4 6 C-4.66 7.32 -5.32 8.64 -6 10 C-6.99 10 -7.98 10 -9 10 C-8.38245741 8.68397477 -7.75571258 7.37226444 -7.125 6.0625 C-6.77695312 5.33160156 -6.42890625 4.60070312 -6.0703125 3.84765625 C-5 2 -5 2 -3 1 C-2.67 1.66 -2.34 2.32 -2 3 C-1.34 2.01 -0.68 1.02 0 0 Z " fill="#262626" transform="translate(271,72)"/>
<path d="M0 0 C0.33 0.99 0.66 1.98 1 3 C-4.35714286 9.29464286 -4.35714286 9.29464286 -9.0625 9.6875 C-10.361875 9.790625 -11.66125 9.89375 -13 10 C-15.90630368 11.4230984 -15.90630368 11.4230984 -18 13 C-16.25 9.125 -16.25 9.125 -14 8 C-11.3276379 7.86584528 -8.67749512 7.95681459 -6 8 C-6 7.34 -6 6.68 -6 6 C-5.34 6 -4.68 6 -4 6 C-3.67 5.01 -3.34 4.02 -3 3 C-1.4375 1.3125 -1.4375 1.3125 0 0 Z " fill="#202020" transform="translate(113,0)"/>
<path d="M0 0 C-1.96822886 1.96822886 -5.34808709 1.66248381 -8 2 C-8 2.66 -8 3.32 -8 4 C-6.02 4 -4.04 4 -2 4 C-2 4.33 -2 4.66 -2 5 C-3.60379341 5.05416188 -5.20811406 5.09286638 -6.8125 5.125 C-7.70582031 5.14820313 -8.59914062 5.17140625 -9.51953125 5.1953125 C-12 5 -12 5 -15 3 C-14.01 2.67 -13.02 2.34 -12 2 C-12 1.34 -12 0.68 -12 0 C-10.37585622 -0.19477739 -8.75063577 -0.38059458 -7.125 -0.5625 C-6.22007812 -0.66691406 -5.31515625 -0.77132812 -4.3828125 -0.87890625 C-2 -1 -2 -1 0 0 Z " fill="#494949" transform="translate(144,254)"/>
<path d="M0 0 C0.33 0 0.66 0 1 0 C1.00257813 0.94101563 1.00515625 1.88203125 1.0078125 2.8515625 C0.98789025 9.84105698 0.98789025 9.84105698 3.40234375 16.1953125 C5.21169473 17.94103084 5.21169473 17.94103084 8 20 C8 20.66 8 21.32 8 22 C7.01 21.67 6.02 21.34 5 21 C5 20.34 5 19.68 5 19 C3.68 18.34 2.36 17.68 1 17 C1 16.34 1 15.68 1 15 C0.34 14.67 -0.32 14.34 -1 14 C-0.67 9.38 -0.34 4.76 0 0 Z " fill="#242424" transform="translate(474,122)"/>
<path d="M0 0 C-2.88087546 2.40072955 -5.56404834 4.47291037 -9 6 C-9 6.66 -9 7.32 -9 8 C-10.95927063 9.7143618 -12.95880212 11.38405168 -15 13 C-14.34 11.02 -13.68 9.04 -13 7 C-12.01 7 -11.02 7 -10 7 C-9.731875 6.401875 -9.46375 5.80375 -9.1875 5.1875 C-6.76780696 0.73017072 -5.14601456 -0.41724442 0 0 Z " fill="#1C1C1C" transform="translate(288,60)"/>
<path d="M0 0 C0.99 0.33 1.98 0.66 3 1 C2.34 2.98 1.68 4.96 1 7 C-1.31 7.33 -3.62 7.66 -6 8 C-5.67 7.01 -5.34 6.02 -5 5 C-4.34 5 -3.68 5 -3 5 C-2.5359375 4.0409375 -2.5359375 4.0409375 -2.0625 3.0625 C-1 1 -1 1 0 0 Z " fill="#101010" transform="translate(278,272)"/>
<path d="M0 0 C3.3 0.33 6.6 0.66 10 1 C10 1.33 10 1.66 10 2 C9.03900391 2.09474609 9.03900391 2.09474609 8.05859375 2.19140625 C0.98513688 3.19286438 -2.5354964 5.47111144 -7 11 C-7.66 10.34 -8.32 9.68 -9 9 C-7.47005208 7.76302083 -5.94010417 6.52604167 -4.41015625 5.2890625 C-2.86733563 4.0333609 -2.86733563 4.0333609 -2 2 C-1.34 2 -0.68 2 0 2 C0 1.34 0 0.68 0 0 Z " fill="#1D1D1D" transform="translate(254,4)"/>
<path d="M0 0 C0.66 0 1.32 0 2 0 C1.54554036 1.41791408 1.08625056 2.83428046 0.625 4.25 C0.36976563 5.03890625 0.11453125 5.8278125 -0.1484375 6.640625 C-0.95173667 8.86627958 -1.89711662 10.90931672 -3 13 C-3.99 12.67 -4.98 12.34 -6 12 C-5.41800054 8.62440315 -4.37247717 7.37247717 -2 5 C-0.80972016 2.40084462 -0.80972016 2.40084462 0 0 Z " fill="#191919" transform="translate(152,132)"/>
<path d="M0 0 C1.98 0 3.96 0 6 0 C6.33 0.66 6.66 1.32 7 2 C5.68 2.33 4.36 2.66 3 3 C2.67 7.95 2.34 12.9 2 18 C1.34 17.67 0.68 17.34 0 17 C0 11.39 0 5.78 0 0 Z " fill="#252525" transform="translate(577,164)"/>
<path d="M0 0 C0.33 0.66 0.66 1.32 1 2 C-2.72346836 6.42094803 -6.29521038 10.57833482 -11 14 C-10.625 12.0625 -10.625 12.0625 -10 10 C-9.34 9.67 -8.68 9.34 -8 9 C-7.34444881 6.47266765 -7.34444881 6.47266765 -7 4 C-6.67 4.66 -6.34 5.32 -6 6 C-5.195625 5.195625 -4.39125 4.39125 -3.5625 3.5625 C-2.375 2.375 -1.1875 1.1875 0 0 Z " fill="#3B3B3B" transform="translate(419,106)"/>
<path d="M0 0 C1.65 0 3.3 0 5 0 C3.68 1.32 2.36 2.64 1 4 C0.67 2.68 0.34 1.36 0 0 Z M-4 2 C-2.68 2.33 -1.36 2.66 0 3 C-1.1875 4.5 -1.1875 4.5 -3 6 C-5.6875 6.1875 -5.6875 6.1875 -8 6 C-8 6.66 -8 7.32 -8 8 C-8.66 8 -9.32 8 -10 8 C-10 7.01 -10 6.02 -10 5 C-8.35 5 -6.7 5 -5 5 C-4.67 4.01 -4.34 3.02 -4 2 Z " fill="#1C1C1C" transform="translate(101,47)"/>
<path d="M0 0 C0.99 0.33 1.98 0.66 3 1 C3.49065421 7.37850467 3.49065421 7.37850467 1.125 10.375 C-1 12 -1 12 -3 13 C-2.67 11.35 -2.34 9.7 -2 8 C-1.34 8 -0.68 8 0 8 C0 5.36 0 2.72 0 0 Z " fill="#090909" transform="translate(20,42)"/>
<path d="M0 0 C0 3 0 3 -1.625 5.6875 C-4.73543958 8.73408892 -8.14563862 8.32092641 -12.3125 8.3125 C-14.54265677 8.23227853 -16.77252674 8.13563775 -19 8 C-19 7.67 -19 7.34 -19 7 C-17.89591797 6.94392578 -17.89591797 6.94392578 -16.76953125 6.88671875 C-9.58130053 6.40243901 -4.97491446 5.49858967 0 0 Z " fill="#161616" transform="translate(330,31)"/>
<path d="M0 0 C0.66 0 1.32 0 2 0 C2 2 2 2 -0.25 4.375 C-1.1575 5.24125 -2.065 6.1075 -3 7 C-3.680625 7.763125 -4.36125 8.52625 -5.0625 9.3125 C-7 11 -7 11 -11 11 C-11 10.34 -11 9.68 -11 9 C-9.948125 8.38125 -9.948125 8.38125 -8.875 7.75 C-6.36263909 6.22073684 -4.81257529 4.90103071 -2.8125 2.8125 C-1.884375 1.884375 -0.95625 0.95625 0 0 Z " fill="#1C1C1C" transform="translate(355,244)"/>
<path d="M0 0 C1.9375 0.8125 1.9375 0.8125 4 2 C4.33 2.99 4.66 3.98 5 5 C7.00016466 6.20882096 7.00016466 6.20882096 9 7 C9 7.99 9 8.98 9 10 C7 10 7 10 4.375 7.625 C2 5 2 5 2 3 C1.34 3 0.68 3 0 3 C0 2.01 0 1.02 0 0 Z " fill="#161616" transform="translate(507,88)"/>
<path d="M0 0 C4.29 0 8.58 0 13 0 C12.67 0.66 12.34 1.32 12 2 C11.9310528 3.37342831 11.91532292 4.75002102 11.9375 6.125 C11.958125 7.40375 11.97875 8.6825 12 10 C11.67 10 11.34 10 11 10 C10.87625 8.576875 10.87625 8.576875 10.75 7.125 C10.33964356 3.98237464 10.33964356 3.98237464 8.3125 2.6875 C5.56125181 1.86956135 2.84212874 1.38756301 0 1 C0 0.67 0 0.34 0 0 Z " fill="#1B1B1B" transform="translate(315,308)"/>
<path d="M0 0 C0.99 0.33 1.98 0.66 3 1 C1.21427748 2.83947337 -0.57802449 4.67157741 -2.375 6.5 C-2.88289062 7.02464844 -3.39078125 7.54929687 -3.9140625 8.08984375 C-5.23832604 9.43153181 -6.61605865 10.71995815 -8 12 C-8.66 12 -9.32 12 -10 12 C-10 11.34 -10 10.68 -10 10 C-8.50390625 8.5625 -8.50390625 8.5625 -6.5625 7 C-3.84811762 4.85474956 -3.84811762 4.85474956 -2 2 C-1.34 2 -0.68 2 0 2 C0 1.34 0 0.68 0 0 Z " fill="#232323" transform="translate(203,280)"/>
<path d="M0 0 C1.51400391 0.01740234 1.51400391 0.01740234 3.05859375 0.03515625 C4.07050781 0.04417969 5.08242187 0.05320313 6.125 0.0625 C7.29869141 0.07990234 7.29869141 0.07990234 8.49609375 0.09765625 C8.49609375 0.42765625 8.49609375 0.75765625 8.49609375 1.09765625 C7.91601562 1.10023438 7.3359375 1.1028125 6.73828125 1.10546875 C2.11045632 1.33456899 -0.67356318 1.71391976 -3.94140625 5.16015625 C-4.78703125 6.12953125 -5.63265625 7.09890625 -6.50390625 8.09765625 C-7.16390625 8.09765625 -7.82390625 8.09765625 -8.50390625 8.09765625 C-8.50390625 6.09765625 -8.50390625 6.09765625 -6.06640625 3.53515625 C-5.22078125 2.73078125 -4.37515625 1.92640625 -3.50390625 1.09765625 C-2.50390625 0.09765625 -2.50390625 0.09765625 0 0 Z " fill="#313131" transform="translate(237.50390625,205.90234375)"/>
<path d="M0 0 C0.33 0.66 0.66 1.32 1 2 C0.01 2.495 0.01 2.495 -1 3 C-0.01 4.485 -0.01 4.485 1 6 C-1.64 6 -4.28 6 -7 6 C-7 5.34 -7 4.68 -7 4 C-6.34 4 -5.68 4 -5 4 C-5 3.01 -5 2.02 -5 1 C-3.35 0.67 -1.7 0.34 0 0 Z " fill="#363636" transform="translate(118,122)"/>
<path d="M0 0 C0.66 0 1.32 0 2 0 C2 0.66 2 1.32 2 2 C2.59296875 2.25523438 3.1859375 2.51046875 3.796875 2.7734375 C6.21224538 4.11816498 7.51211706 5.49214367 9.25 7.625 C9.77078125 8.25664063 10.2915625 8.88828125 10.828125 9.5390625 C11.40820312 10.26222656 11.40820312 10.26222656 12 11 C8.76513406 10.29822123 7.10818805 9.63523506 5 7 C5 6.34 5 5.68 5 5 C4.34 5 3.68 5 3 5 C3 4.34 3 3.68 3 3 C2.01 2.67 1.02 2.34 0 2 C0 1.34 0 0.68 0 0 Z " fill="#131313" transform="translate(491,93)"/>
<path d="M0 0 C0.66 0 1.32 0 2 0 C2 0.66 2 1.32 2 2 C2.5775 2.20625 3.155 2.4125 3.75 2.625 C6.94963862 4.58033471 8.28154072 6.69037472 10 10 C9.75 13.375 9.75 13.375 9 16 C8.67 16 8.34 16 8 16 C7.97421875 15.37351562 7.9484375 14.74703125 7.921875 14.1015625 C7.86515625 13.28429688 7.8084375 12.46703125 7.75 11.625 C7.70359375 10.81289063 7.6571875 10.00078125 7.609375 9.1640625 C7.2077908 6.81161073 7.2077908 6.81161073 4.953125 5.7109375 C4.30859375 5.47632813 3.6640625 5.24171875 3 5 C3 4.34 3 3.68 3 3 C2.01 2.67 1.02 2.34 0 2 C0 1.34 0 0.68 0 0 Z " fill="#1C1C1C" transform="translate(376,6)"/>
<path d="M0 0 C2.475 0.99 2.475 0.99 5 2 C5 2.66 5 3.32 5 4 C8.96 4.33 12.92 4.66 17 5 C17 5.33 17 5.66 17 6 C12.71 6 8.42 6 4 6 C4 5.34 4 4.68 4 4 C2.68 3.34 1.36 2.68 0 2 C0 1.34 0 0.68 0 0 Z " fill="#1F1F1F" transform="translate(255,207)"/>
<path d="M0 0 C0.33 0 0.66 0 1 0 C1 6.27 1 12.54 1 19 C-0.65 19.33 -2.3 19.66 -4 20 C-3.27876953 19.00419922 -3.27876953 19.00419922 -2.54296875 17.98828125 C-0.67792695 14.37623828 -0.44576934 11.16654186 -0.3125 7.1875 C-0.27833984 6.49462891 -0.24417969 5.80175781 -0.20898438 5.08789062 C-0.12713656 3.39247151 -0.06187635 1.69626542 0 0 Z " fill="#373737" transform="translate(566,87)"/>
<path d="M0 0 C0 3 0 3 -2 6 C-2.66 6 -3.32 6 -4 6 C-4 6.66 -4 7.32 -4 8 C-5.98 8.66 -7.96 9.32 -10 10 C-8.72920407 6.1876122 -7.39322116 5.972803 -4 4 C-2.63015802 2.70420353 -1.2848951 1.38007251 0 0 Z " fill="#212121" transform="translate(48,303)"/>
<path d="M0 0 C2.31 0.33 4.62 0.66 7 1 C7.33 2.65 7.66 4.3 8 6 C5.03 5.01 2.06 4.02 -1 3 C-0.67 2.01 -0.34 1.02 0 0 Z " fill="#181818" transform="translate(342,288)"/>
<path d="M0 0 C0.66 0 1.32 0 2 0 C2 0.66 2 1.32 2 2 C5.3 1.67 8.6 1.34 12 1 C11.67 1.99 11.34 2.98 11 4 C9.54176788 4.0270043 8.08339325 4.04639787 6.625 4.0625 C5.81289063 4.07410156 5.00078125 4.08570313 4.1640625 4.09765625 C2 4 2 4 0 3 C0 2.01 0 1.02 0 0 Z " fill="#151515" transform="translate(600,33)"/>
<path d="M0 0 C0.99 0.33 1.98 0.66 3 1 C0.61820737 4.74281699 -1.74475735 7.97727468 -5 11 C-5.66 10.67 -6.32 10.34 -7 10 C-5.625 8 -5.625 8 -4 6 C-3.34 6 -2.68 6 -2 6 C-1.34 4.02 -0.68 2.04 0 0 Z " fill="#242424" transform="translate(17,271)"/>
<path d="M0 0 C0.33 0 0.66 0 1 0 C1.33 7.26 1.66 14.52 2 22 C1.01 21.67 0.02 21.34 -1 21 C-0.67 14.07 -0.34 7.14 0 0 Z " fill="#0D0D0D" transform="translate(550,88)"/>
<path d="M0 0 C0 0.99 0 1.98 0 3 C-1.46688037 4.27554815 -2.93976866 5.54881117 -4.4921875 6.71875 C-6.27499979 8.11472845 -6.27499979 8.11472845 -8 11 C-8.66 10.67 -9.32 10.34 -10 10 C-7.90814081 5.92637948 -6.00757642 4.15792576 -2 2 C-1.34 1.34 -0.68 0.68 0 0 Z " fill="#1D1D1D" transform="translate(579,13)"/>
<path d="M0 0 C1.40194332 0.26072029 2.80078513 0.54267182 4.1875 0.875 C4.1875 1.205 4.1875 1.535 4.1875 1.875 C2.95 1.9575 1.7125 2.04 0.4375 2.125 C-2.80132964 2.50975459 -3.69157883 2.77524003 -6.3125 4.9375 C-6.8075 5.576875 -7.3025 6.21625 -7.8125 6.875 C-8.4725 6.545 -9.1325 6.215 -9.8125 5.875 C-6.91530373 1.29556074 -5.61252464 -0.68164731 0 0 Z " fill="#1E1E1E" transform="translate(527.8125,305.125)"/>
<path d="M0 0 C3.78717347 1.48781815 5.77407001 3.61988409 8 7 C7.67 7.99 7.34 8.98 7 10 C7 9.34 7 8.68 7 8 C6.34 8 5.68 8 5 8 C2.375 5.6875 2.375 5.6875 0 3 C0 2.01 0 1.02 0 0 Z " fill="#121212" transform="translate(168,284)"/>
<path d="M0 0 C0.66 0 1.32 0 2 0 C1.98839844 0.68707031 1.97679687 1.37414062 1.96484375 2.08203125 C1.95582031 2.98308594 1.94679687 3.88414062 1.9375 4.8125 C1.92589844 5.70582031 1.91429687 6.59914062 1.90234375 7.51953125 C1.88990033 10.13413791 1.88990033 10.13413791 3 13 C2.01 13.33 1.02 13.66 0 14 C-0.66 13.34 -1.32 12.68 -2 12 C-1.67 11.67 -1.34 11.34 -1 11 C-0.76636119 9.15108054 -0.58696365 7.29511969 -0.4375 5.4375 C-0.35371094 4.42558594 -0.26992187 3.41367188 -0.18359375 2.37109375 C-0.12300781 1.58863281 -0.06242188 0.80617187 0 0 Z " fill="#212121" transform="translate(249,192)"/>
<path d="M0 0 C0.66 0 1.32 0 2 0 C2 0.99 2 1.98 2 3 C1.01 3 0.02 3 -1 3 C-1.103125 3.763125 -1.20625 4.52625 -1.3125 5.3125 C-2.04364039 8.17059424 -2.76951913 9.15742885 -5 11 C-5.66 10.67 -6.32 10.34 -7 10 C-6.38125 9.443125 -5.7625 8.88625 -5.125 8.3125 C-2.92968028 5.9234756 -2.06351763 4.02693479 -1 1 C-0.67 0.67 -0.34 0.34 0 0 Z " fill="#212121" transform="translate(266,173)"/>
<path d="M0 0 C-0.99 1.32 -1.98 2.64 -3 4 C-2.01 3.67 -1.02 3.34 0 3 C0 3.66 0 4.32 0 5 C-2.64 5 -5.28 5 -8 5 C-8 4.34 -8 3.68 -8 3 C-7.01 2.67 -6.02 2.34 -5 2 C-5.33 1.34 -5.66 0.68 -6 0 C-2.25 -1.125 -2.25 -1.125 0 0 Z " fill="#3B3B3B" transform="translate(119,136)"/>
<path d="M0 0 C-0.99 1.98 -1.98 3.96 -3 6 C-3.66 5.01 -4.32 4.02 -5 3 C-6.96361864 2.42251197 -6.96361864 2.42251197 -9.125 2.3125 C-10.40375 2.209375 -11.6825 2.10625 -13 2 C-13 1.67 -13 1.34 -13 1 C-8.62426048 0.40667939 -4.42471556 -0.13827236 0 0 Z " fill="#161616" transform="translate(397,107)"/>
<path d="M0 0 C-2.82445592 0.94148531 -4.14171618 1.07311695 -7.01171875 0.87890625 C-7.76904297 0.83056641 -8.52636719 0.78222656 -9.30664062 0.73242188 C-10.09232422 0.67634766 -10.87800781 0.62027344 -11.6875 0.5625 C-12.48478516 0.51029297 -13.28207031 0.45808594 -14.10351562 0.40429688 C-16.06936522 0.27480978 -18.03473665 0.13809959 -20 0 C-20 -0.33 -20 -0.66 -20 -1 C-17.22964291 -1.22162857 -14.45961005 -1.42779249 -11.6875 -1.625 C-10.90181641 -1.68945312 -10.11613281 -1.75390625 -9.30664062 -1.8203125 C-8.54931641 -1.871875 -7.79199219 -1.9234375 -7.01171875 -1.9765625 C-6.31522217 -2.02893066 -5.61872559 -2.08129883 -4.90112305 -2.13525391 C-3 -2 -3 -2 0 0 Z " fill="#0A0A0A" transform="translate(508,246)"/>
<path d="M0 0 C0 3 0 3 -1.75 5.04296875 C-2.4925 5.75066406 -3.235 6.45835937 -4 7.1875 C-4.7425 7.90292969 -5.485 8.61835938 -6.25 9.35546875 C-7.11625 10.16951172 -7.11625 10.16951172 -8 11 C-8.66 10.34 -9.32 9.68 -10 9 C-6.7 6.03 -3.4 3.06 0 0 Z " fill="#202020" transform="translate(511,153)"/>
<path d="M0 0 C4.67692308 1.47692308 4.67692308 1.47692308 6.3125 4.125 C6.539375 4.74375 6.76625 5.3625 7 6 C6.01 6.495 6.01 6.495 5 7 C3.29115995 5.37660195 1.62553283 3.70680947 0 2 C0 1.34 0 0.68 0 0 Z " fill="#0F0F0F" transform="translate(523,87)"/>
<path d="M0 0 C1.32 0 2.64 0 4 0 C4 0.66 4 1.32 4 2 C4.66 2 5.32 2 6 2 C6 2.66 6 3.32 6 4 C7.32 4.66 8.64 5.32 10 6 C10 6.66 10 7.32 10 8 C7.50638429 6.79618552 5.31856917 5.54571278 3 4 C3 3.01 3 2.02 3 1 C2.01 0.67 1.02 0.34 0 0 Z " fill="#0F0F0F" transform="translate(171,6)"/>
<path d="M0 0 C0.33 0.99 0.66 1.98 1 3 C0.0479279 4.00596297 -0.91187346 5.00461563 -1.875 6 C-2.40867187 6.556875 -2.94234375 7.11375 -3.4921875 7.6875 C-5 9 -5 9 -7 9 C-6.67 8.01 -6.34 7.02 -6 6 C-5.34 6 -4.68 6 -4 6 C-3.67 5.01 -3.34 4.02 -3 3 C-2.34 3 -1.68 3 -1 3 C-0.67 2.01 -0.34 1.02 0 0 Z " fill="#1C1C1C" transform="translate(604,237)"/>
<path d="M0 0 C1.1725131 0.95117134 2.33787015 1.91117009 3.5 2.875 C4.47453125 3.67550781 4.47453125 3.67550781 5.46875 4.4921875 C5.9740625 4.98976563 6.479375 5.48734375 7 6 C7 6.66 7 7.32 7 8 C3.2047869 6.50902342 1.38957269 4.24299151 -1 1 C-0.67 0.67 -0.34 0.34 0 0 Z " fill="#161616" transform="translate(537,75)"/>
<path d="M0 0 C2.64 0 5.28 0 8 0 C7.67 0.66 7.34 1.32 7 2 C6.195625 2.12375 5.39125 2.2475 4.5625 2.375 C1.84016601 2.72567164 1.84016601 2.72567164 0.6875 5.0625 C0.3471875 6.0215625 0.3471875 6.0215625 0 7 C0 4.69 0 2.38 0 0 Z " fill="#2A2A2A" transform="translate(440,49)"/>
<path d="M0 0 C3.02990095 1.71967351 5.76327296 3.29238306 8 6 C8 6.66 8 7.32 8 8 C4.63820226 6.55922954 2.40843732 4.75249979 0 2 C0 1.34 0 0.68 0 0 Z " fill="#181818" transform="translate(504,8)"/>
<path d="M0 0 C0.66 0 1.32 0 2 0 C2 2.97 2 5.94 2 9 C1.01 8.67 0.02 8.34 -1 8 C-0.67 5.36 -0.34 2.72 0 0 Z " fill="#191919" transform="translate(516,312)"/>
<path d="M0 0 C0.66 0 1.32 0 2 0 C1.65120368 3.25543229 0.97866739 4.01873107 -1.5625 6.25 C-2.366875 6.8275 -3.17125 7.405 -4 8 C-4.66 7.67 -5.32 7.34 -6 7 C-5.04882866 5.8274869 -4.08882991 4.66212985 -3.125 3.5 C-2.59132812 2.8503125 -2.05765625 2.200625 -1.5078125 1.53125 C-0.76144531 0.77328125 -0.76144531 0.77328125 0 0 Z " fill="#1C1C1C" transform="translate(153,145)"/>
<path d="M0 0 C1.14926266 0.95421808 2.29430541 1.91352045 3.4375 2.875 C4.07558594 3.40867187 4.71367188 3.94234375 5.37109375 4.4921875 C7 6 7 6 8 8 C4.82461668 7.65978036 3.97723135 6.97533396 1.75 4.5625 C0 2 0 2 0 0 Z " fill="#151515" transform="translate(87,104)"/>
<path d="M0 0 C0.66 0.33 1.32 0.66 2 1 C1.67 2.32 1.34 3.64 1 5 C-0.65 5.33 -2.3 5.66 -4 6 C-2.25 1.125 -2.25 1.125 0 0 Z " fill="#090909" transform="translate(516,276)"/>
<path d="M0 0 C0.66 0.33 1.32 0.66 2 1 C2 1.66 2 2.32 2 3 C-0.31 4.32 -2.62 5.64 -5 7 C-5.33 6.34 -5.66 5.68 -6 5 C-4.02 3.35 -2.04 1.7 0 0 Z " fill="#252525" transform="translate(214,201)"/>
<path d="M0 0 C0.33 0.99 0.66 1.98 1 3 C0.34 3.66 -0.32 4.32 -1 5 C-1.45811675 6.97235333 -1.45811675 6.97235333 -1.625 9.125 C-1.74875 10.40375 -1.8725 11.6825 -2 13 C-2.33 13 -2.66 13 -3 13 C-3.08121924 11.39667209 -3.13929134 9.79215974 -3.1875 8.1875 C-3.22230469 7.29417969 -3.25710937 6.40085938 -3.29296875 5.48046875 C-2.95081002 2.58352485 -2.24606427 1.77444972 0 0 Z " fill="#303030" transform="translate(116,163)"/>
<path d="M0 0 C0.66 0 1.32 0 2 0 C1.67 1.65 1.34 3.3 1 5 C-2.3 4.34 -5.6 3.68 -9 3 C-9 2.67 -9 2.34 -9 2 C-6.94921875 1.77213542 -4.8984375 1.54427083 -2.84765625 1.31640625 C-0.98859771 1.18113386 -0.98859771 1.18113386 0 0 Z " fill="#414141" transform="translate(558,121)"/>
<path d="M0 0 C3.36591866 1.44253657 5.51047079 3.33264727 8 6 C7.67 6.66 7.34 7.32 7 8 C5 6.625 5 6.625 3 5 C3 4.34 3 3.68 3 3 C2.34 3 1.68 3 1 3 C0.67 2.01 0.34 1.02 0 0 Z " fill="#101010" transform="translate(121,112)"/>
<path d="M0 0 C0 0.66 0 1.32 0 2 C-0.66 2 -1.32 2 -2 2 C-2.33 2.99 -2.66 3.98 -3 5 C-5.5625 6.6875 -5.5625 6.6875 -8 8 C-6.48291727 4.46014029 -4.24676932 0 0 0 Z " fill="#313131" transform="translate(525,273)"/>
<path d="M0 0 C0.66 0.66 1.32 1.32 2 2 C1.34 2 0.68 2 0 2 C0 2.66 0 3.32 0 4 C-0.66 4 -1.32 4 -2 4 C-2.33 4.99 -2.66 5.98 -3 7 C-3.99 7.33 -4.98 7.66 -6 8 C-4.55746343 4.63408134 -2.66735273 2.48952921 0 0 Z " fill="#1C1C1C" transform="translate(301,268)"/>
<path d="M0 0 C0.99 0.33 1.98 0.66 3 1 C3.33 2.65 3.66 4.3 4 6 C2.68 5.34 1.36 4.68 0 4 C0 3.34 0 2.68 0 2 C-0.66 1.67 -1.32 1.34 -2 1 C-1.34 0.67 -0.68 0.34 0 0 Z " fill="#0F0F0F" transform="translate(250,246)"/>
<path d="M0 0 C0.66 0.33 1.32 0.66 2 1 C0.75 3.4375 0.75 3.4375 -1 6 C-2.32 6.33 -3.64 6.66 -5 7 C-3.35 4.69 -1.7 2.38 0 0 Z " fill="#1A1A1A" transform="translate(593,236)"/>
<path d="M0 0 C0.66 0 1.32 0 2 0 C0.55746343 3.36591866 -1.33264727 5.51047079 -4 8 C-4.66 7.67 -5.32 7.34 -6 7 C-5.04882866 5.8274869 -4.08882991 4.66212985 -3.125 3.5 C-2.59132812 2.8503125 -2.05765625 2.200625 -1.5078125 1.53125 C-0.76144531 0.77328125 -0.76144531 0.77328125 0 0 Z " fill="#202020" transform="translate(257,184)"/>
<path d="M0 0 C0.99 0 1.98 0 3 0 C3.433125 0.9590625 3.433125 0.9590625 3.875 1.9375 C4.82823451 4.15206079 4.82823451 4.15206079 7 5 C7 5.66 7 6.32 7 7 C4.13302508 5.71480435 2.02392288 4.42870746 0 2 C0 1.34 0 0.68 0 0 Z " fill="#121212" transform="translate(76,101)"/>
<path d="M0 0 C0.598125 0.309375 1.19625 0.61875 1.8125 0.9375 C4.08956772 2.10209704 4.08956772 2.10209704 7 3 C7 3.66 7 4.32 7 5 C5.68 5.33 4.36 5.66 3 6 C3 5.01 3 4.02 3 3 C2.34 3 1.68 3 1 3 C0.67 2.01 0.34 1.02 0 0 Z " fill="#1A1A1A" transform="translate(448,311)"/>
<path d="M0 0 C2.46800047 1.15173355 4.04783565 2.04783565 6 4 C5.67 4.99 5.34 5.98 5 7 C3.29115995 5.37660195 1.62553283 3.70680947 0 2 C0 1.34 0 0.68 0 0 Z " fill="#171717" transform="translate(500,280)"/>
<path d="M0 0 C0 0.99 0 1.98 0 3 C-0.66 3 -1.32 3 -2 3 C-2.66 4.32 -3.32 5.64 -4 7 C-4.99 7 -5.98 7 -7 7 C-4.78071806 4.09197539 -3.07030857 2.04687238 0 0 Z " fill="#1E1E1E" transform="translate(468,277)"/>
<path d="M0 0 C0.99 0 1.98 0 3 0 C3 0.66 3 1.32 3 2 C3.99 2.33 4.98 2.66 6 3 C6.6875 5.0625 6.6875 5.0625 7 7 C5.82780457 6.21654285 4.66236332 5.42297164 3.5 4.625 C2.8503125 4.18414062 2.200625 3.74328125 1.53125 3.2890625 C1.0259375 2.86367188 0.520625 2.43828125 0 2 C0 1.34 0 0.68 0 0 Z " fill="#181818" transform="translate(129,278)"/>
<path d="M0 0 C2.97 0.495 2.97 0.495 6 1 C6 1.99 6 2.98 6 4 C4.68 4.33 3.36 4.66 2 5 C1.34 3.35 0.68 1.7 0 0 Z " fill="#1A1A1A" transform="translate(286,251)"/>
<path d="M0 0 C0 0.99 0 1.98 0 3 C-0.66 3 -1.32 3 -2 3 C-2.33 3.99 -2.66 4.98 -3 6 C-3.66 6 -4.32 6 -5 6 C-4.75 4.125 -4.75 4.125 -4 2 C-1.9375 0.75 -1.9375 0.75 0 0 Z " fill="#222222" transform="translate(405,107)"/>
</svg>
